<?xml version="1.0" encoding="UTF-8"?>
<svg xmlns="http://www.w3.org/2000/svg" viewBox="-321.9 -197.7 590.1 566.9" preserveAspectRatio="xMidYMid meet" style="overflow: hidden;"><defs><linearGradient id="r63sh" x1="0" y1="0" x2="0" y2="1"><stop offset="0" stop-color="#ffffff" stop-opacity="0.16"></stop><stop offset="0.55" stop-color="#ffffff" stop-opacity="0"></stop><stop offset="1" stop-color="#000000" stop-opacity="0.10"></stop></linearGradient><linearGradient id="r63gl" x1="0" y1="0" x2="0" y2="1"><stop offset="0" stop-color="#ffd978" stop-opacity="0.95"></stop><stop offset="0.5" stop-color="#ffd978" stop-opacity="0.45"></stop><stop offset="1" stop-color="#ffd978" stop-opacity="0"></stop></linearGradient><radialGradient id="r63lg"><stop offset="0" stop-color="#ffe9a8" stop-opacity="0.55"></stop><stop offset="1" stop-color="#ffe9a8" stop-opacity="0"></stop></radialGradient></defs><polygon points="-212.77,234.04 581.56,234.04 581.56,-106.38 -212.77,-106.38" fill="#efe8de"></polygon><polygon points="-212.77,234.04 -322.58,354.84 -322.58,-161.29 -212.77,-106.38" fill="#e2d8ca"></polygon><polygon points="-212.77,234.04 581.56,234.04 881.72,354.84 -322.58,354.84" fill="#ccb08d"></polygon><line x1="-212.77" y1="234.04" x2="-322.58" y2="354.84" stroke="rgba(90,60,30,0.10)" stroke-width="1" stroke-linecap="round" vector-effect="non-scaling-stroke"></line><line x1="-181.56" y1="234.04" x2="-275.27" y2="354.84" stroke="rgba(90,60,30,0.10)" stroke-width="1" stroke-linecap="round" vector-effect="non-scaling-stroke"></line><line x1="-150.35" y1="234.04" x2="-227.96" y2="354.84" stroke="rgba(90,60,30,0.10)" stroke-width="1" stroke-linecap="round" vector-effect="non-scaling-stroke"></line><line x1="-119.15" y1="234.04" x2="-180.65" y2="354.84" stroke="rgba(90,60,30,0.10)" stroke-width="1" stroke-linecap="round" vector-effect="non-scaling-stroke"></line><line x1="-87.94" y1="234.04" x2="-133.33" y2="354.84" stroke="rgba(90,60,30,0.10)" stroke-width="1" stroke-linecap="round" vector-effect="non-scaling-stroke"></line><line x1="-56.74" y1="234.04" x2="-86.02" y2="354.84" stroke="rgba(90,60,30,0.10)" stroke-width="1" stroke-linecap="round" vector-effect="non-scaling-stroke"></line><line x1="-25.53" y1="234.04" x2="-38.71" y2="354.84" stroke="rgba(90,60,30,0.10)" stroke-width="1" stroke-linecap="round" vector-effect="non-scaling-stroke"></line><line x1="5.67" y1="234.04" x2="8.60" y2="354.84" stroke="rgba(90,60,30,0.10)" stroke-width="1" stroke-linecap="round" vector-effect="non-scaling-stroke"></line><line x1="36.88" y1="234.04" x2="55.91" y2="354.84" stroke="rgba(90,60,30,0.10)" stroke-width="1" stroke-linecap="round" vector-effect="non-scaling-stroke"></line><line x1="68.09" y1="234.04" x2="103.23" y2="354.84" stroke="rgba(90,60,30,0.10)" stroke-width="1" stroke-linecap="round" vector-effect="non-scaling-stroke"></line><line x1="99.29" y1="234.04" x2="150.54" y2="354.84" stroke="rgba(90,60,30,0.10)" stroke-width="1" stroke-linecap="round" vector-effect="non-scaling-stroke"></line><line x1="130.50" y1="234.04" x2="197.85" y2="354.84" stroke="rgba(90,60,30,0.10)" stroke-width="1" stroke-linecap="round" vector-effect="non-scaling-stroke"></line><line x1="161.70" y1="234.04" x2="245.16" y2="354.84" stroke="rgba(90,60,30,0.10)" stroke-width="1" stroke-linecap="round" vector-effect="non-scaling-stroke"></line><line x1="192.91" y1="234.04" x2="292.47" y2="354.84" stroke="rgba(90,60,30,0.10)" stroke-width="1" stroke-linecap="round" vector-effect="non-scaling-stroke"></line><line x1="224.11" y1="234.04" x2="339.78" y2="354.84" stroke="rgba(90,60,30,0.10)" stroke-width="1" stroke-linecap="round" vector-effect="non-scaling-stroke"></line><line x1="255.32" y1="234.04" x2="387.10" y2="354.84" stroke="rgba(90,60,30,0.10)" stroke-width="1" stroke-linecap="round" vector-effect="non-scaling-stroke"></line><line x1="286.52" y1="234.04" x2="434.41" y2="354.84" stroke="rgba(90,60,30,0.10)" stroke-width="1" stroke-linecap="round" vector-effect="non-scaling-stroke"></line><line x1="317.73" y1="234.04" x2="481.72" y2="354.84" stroke="rgba(90,60,30,0.10)" stroke-width="1" stroke-linecap="round" vector-effect="non-scaling-stroke"></line><line x1="348.94" y1="234.04" x2="529.03" y2="354.84" stroke="rgba(90,60,30,0.10)" stroke-width="1" stroke-linecap="round" vector-effect="non-scaling-stroke"></line><line x1="380.14" y1="234.04" x2="576.34" y2="354.84" stroke="rgba(90,60,30,0.10)" stroke-width="1" stroke-linecap="round" vector-effect="non-scaling-stroke"></line><line x1="411.35" y1="234.04" x2="623.66" y2="354.84" stroke="rgba(90,60,30,0.10)" stroke-width="1" stroke-linecap="round" vector-effect="non-scaling-stroke"></line><line x1="442.55" y1="234.04" x2="670.97" y2="354.84" stroke="rgba(90,60,30,0.10)" stroke-width="1" stroke-linecap="round" vector-effect="non-scaling-stroke"></line><line x1="473.76" y1="234.04" x2="718.28" y2="354.84" stroke="rgba(90,60,30,0.10)" stroke-width="1" stroke-linecap="round" vector-effect="non-scaling-stroke"></line><line x1="504.96" y1="234.04" x2="765.59" y2="354.84" stroke="rgba(90,60,30,0.10)" stroke-width="1" stroke-linecap="round" vector-effect="non-scaling-stroke"></line><line x1="536.17" y1="234.04" x2="812.90" y2="354.84" stroke="rgba(90,60,30,0.10)" stroke-width="1" stroke-linecap="round" vector-effect="non-scaling-stroke"></line><line x1="567.38" y1="234.04" x2="860.22" y2="354.84" stroke="rgba(90,60,30,0.10)" stroke-width="1" stroke-linecap="round" vector-effect="non-scaling-stroke"></line><polygon points="-212.83,106.41 127.70,106.41 127.70,28.38 -212.83,28.38" fill="#f8f6f2" stroke="rgba(0,0,0,0.05)" stroke-width="1" vector-effect="non-scaling-stroke" stroke-linejoin="round"></polygon><line x1="-212.86" y1="106.43" x2="-212.86" y2="28.38" stroke="rgba(0,0,0,0.06)" stroke-width="1" stroke-linecap="round" vector-effect="non-scaling-stroke"></line><line x1="-191.57" y1="106.43" x2="-191.57" y2="28.38" stroke="rgba(0,0,0,0.06)" stroke-width="1" stroke-linecap="round" vector-effect="non-scaling-stroke"></line><line x1="-170.29" y1="106.43" x2="-170.29" y2="28.38" stroke="rgba(0,0,0,0.06)" stroke-width="1" stroke-linecap="round" vector-effect="non-scaling-stroke"></line><line x1="-149.00" y1="106.43" x2="-149.00" y2="28.38" stroke="rgba(0,0,0,0.06)" stroke-width="1" stroke-linecap="round" vector-effect="non-scaling-stroke"></line><line x1="-127.71" y1="106.43" x2="-127.71" y2="28.38" stroke="rgba(0,0,0,0.06)" stroke-width="1" stroke-linecap="round" vector-effect="non-scaling-stroke"></line><line x1="-106.43" y1="106.43" x2="-106.43" y2="28.38" stroke="rgba(0,0,0,0.06)" stroke-width="1" stroke-linecap="round" vector-effect="non-scaling-stroke"></line><line x1="-85.14" y1="106.43" x2="-85.14" y2="28.38" stroke="rgba(0,0,0,0.06)" stroke-width="1" stroke-linecap="round" vector-effect="non-scaling-stroke"></line><line x1="-63.86" y1="106.43" x2="-63.86" y2="28.38" stroke="rgba(0,0,0,0.06)" stroke-width="1" stroke-linecap="round" vector-effect="non-scaling-stroke"></line><line x1="-42.57" y1="106.43" x2="-42.57" y2="28.38" stroke="rgba(0,0,0,0.06)" stroke-width="1" stroke-linecap="round" vector-effect="non-scaling-stroke"></line><line x1="-21.29" y1="106.43" x2="-21.29" y2="28.38" stroke="rgba(0,0,0,0.06)" stroke-width="1" stroke-linecap="round" vector-effect="non-scaling-stroke"></line><line x1="0.00" y1="106.43" x2="0.00" y2="28.38" stroke="rgba(0,0,0,0.06)" stroke-width="1" stroke-linecap="round" vector-effect="non-scaling-stroke"></line><line x1="21.29" y1="106.43" x2="21.29" y2="28.38" stroke="rgba(0,0,0,0.06)" stroke-width="1" stroke-linecap="round" vector-effect="non-scaling-stroke"></line><line x1="42.57" y1="106.43" x2="42.57" y2="28.38" stroke="rgba(0,0,0,0.06)" stroke-width="1" stroke-linecap="round" vector-effect="non-scaling-stroke"></line><line x1="63.86" y1="106.43" x2="63.86" y2="28.38" stroke="rgba(0,0,0,0.06)" stroke-width="1" stroke-linecap="round" vector-effect="non-scaling-stroke"></line><line x1="85.14" y1="106.43" x2="85.14" y2="28.38" stroke="rgba(0,0,0,0.06)" stroke-width="1" stroke-linecap="round" vector-effect="non-scaling-stroke"></line><line x1="106.43" y1="106.43" x2="106.43" y2="28.38" stroke="rgba(0,0,0,0.06)" stroke-width="1" stroke-linecap="round" vector-effect="non-scaling-stroke"></line><line x1="-212.86" y1="90.82" x2="127.71" y2="90.82" stroke="rgba(0,0,0,0.06)" stroke-width="1" stroke-linecap="round" vector-effect="non-scaling-stroke"></line><line x1="-212.86" y1="75.21" x2="127.71" y2="75.21" stroke="rgba(0,0,0,0.06)" stroke-width="1" stroke-linecap="round" vector-effect="non-scaling-stroke"></line><line x1="-212.86" y1="59.60" x2="127.71" y2="59.60" stroke="rgba(0,0,0,0.06)" stroke-width="1" stroke-linecap="round" vector-effect="non-scaling-stroke"></line><line x1="-212.86" y1="43.99" x2="127.71" y2="43.99" stroke="rgba(0,0,0,0.06)" stroke-width="1" stroke-linecap="round" vector-effect="non-scaling-stroke"></line><polygon points="-212.48,106.38 -285.33,142.86 -285.33,38.10 -212.48,28.37" fill="#f1eee8"></polygon><polygon points="-212.90,76.64 -127.74,76.64 -127.74,28.39 -212.90,28.39" fill="url(#r63gl)"></polygon><line x1="-222.80" y1="30.70" x2="-134.87" y2="30.70" stroke="#fffbe3" stroke-width="3" stroke-linecap="round" vector-effect="non-scaling-stroke"></line><polygon points="-127.74,76.64 -42.58,76.64 -42.58,28.39 -127.74,28.39" fill="url(#r63gl)"></polygon><line x1="-133.38" y1="30.70" x2="-45.45" y2="30.70" stroke="#fffbe3" stroke-width="3" stroke-linecap="round" vector-effect="non-scaling-stroke"></line><polygon points="-42.58,76.64 42.58,76.64 42.58,28.39 -42.58,28.39" fill="url(#r63gl)"></polygon><line x1="-43.96" y1="30.70" x2="43.96" y2="30.70" stroke="#fffbe3" stroke-width="3" stroke-linecap="round" vector-effect="non-scaling-stroke"></line><polygon points="42.58,76.64 127.74,76.64 127.74,28.39 42.58,28.39" fill="url(#r63gl)"></polygon><line x1="45.45" y1="30.70" x2="133.38" y2="30.70" stroke="#fffbe3" stroke-width="3" stroke-linecap="round" vector-effect="non-scaling-stroke"></line><polygon points="-223.21,80.60 -245.16,88.52 -245.16,32.79 -223.21,29.85" fill="url(#r63gl)"></polygon><line x1="-173.26" y1="30.77" x2="-190.01" y2="33.74" stroke="#fffbe3" stroke-width="3" stroke-linecap="round" vector-effect="non-scaling-stroke"></line><polygon points="-212.89,48.25 -127.73,48.25 -127.73,28.38 -212.89,28.38" fill="rgba(0,0,0,0.07)"></polygon><polygon points="-223.28,29.85 -134.93,29.85 -134.93,-77.61 -223.28,-77.61" fill="#c7bda8" stroke="rgba(0,0,0,0.28)" stroke-width="1" vector-effect="non-scaling-stroke" stroke-linejoin="round"></polygon><polygon points="-223.28,29.85 -134.93,29.85 -134.93,-77.61 -223.28,-77.61" fill="url(#r63sh)"></polygon><polygon points="-127.73,48.25 -42.58,48.25 -42.58,28.38 -127.73,28.38" fill="rgba(0,0,0,0.07)"></polygon><polygon points="-133.73,29.85 -45.37,29.85 -45.37,-77.61 -133.73,-77.61" fill="#c7bda8" stroke="rgba(0,0,0,0.28)" stroke-width="1" vector-effect="non-scaling-stroke" stroke-linejoin="round"></polygon><polygon points="-133.73,29.85 -45.37,29.85 -45.37,-77.61 -133.73,-77.61" fill="url(#r63sh)"></polygon><line x1="-89.56" y1="29.11" x2="-89.56" y2="-76.87" stroke="rgba(0,0,0,0.28)" stroke-width="1" stroke-linecap="round" vector-effect="non-scaling-stroke"></line><polygon points="-42.58,48.25 42.58,48.25 42.58,28.38 -42.58,28.38" fill="rgba(0,0,0,0.07)"></polygon><polygon points="-44.18,29.85 44.18,29.85 44.18,-77.61 -44.18,-77.61" fill="#c7bda8" stroke="rgba(0,0,0,0.28)" stroke-width="1" vector-effect="non-scaling-stroke" stroke-linejoin="round"></polygon><polygon points="-44.18,29.85 44.18,29.85 44.18,-77.61 -44.18,-77.61" fill="url(#r63sh)"></polygon><polygon points="42.58,48.25 127.73,48.25 127.73,28.38 42.58,28.38" fill="rgba(0,0,0,0.07)"></polygon><polygon points="45.37,29.85 133.73,29.85 133.73,-77.61 45.37,-77.61" fill="#c7bda8" stroke="rgba(0,0,0,0.28)" stroke-width="1" vector-effect="non-scaling-stroke" stroke-linejoin="round"></polygon><polygon points="45.37,29.85 133.73,29.85 133.73,-77.61 45.37,-77.61" fill="url(#r63sh)"></polygon><line x1="89.56" y1="29.11" x2="89.56" y2="-76.87" stroke="rgba(0,0,0,0.28)" stroke-width="1" stroke-linecap="round" vector-effect="non-scaling-stroke"></line><polygon points="-171.74,29.87 -188.40,32.77 -188.40,-85.19 -171.74,-77.66" fill="#c7bda8" stroke="rgba(0,0,0,0.28)" stroke-width="1" vector-effect="non-scaling-stroke" stroke-linejoin="round"></polygon><polygon points="-171.74,29.87 -188.40,32.77 -188.40,-85.19 -171.74,-77.66" fill="url(#r63sh)"></polygon><polygon points="-171.74,29.87 -188.40,32.77 -188.40,-85.19 -171.74,-77.66" fill="#000000" fill-opacity="0.09"></polygon><line x1="-179.61" y1="30.47" x2="-179.61" y2="-80.47" stroke="rgba(0,0,0,0.28)" stroke-width="1" stroke-linecap="round" vector-effect="non-scaling-stroke"></line><polygon points="-245.90,32.79 -188.52,32.79 -188.52,-85.25 -245.90,-85.25" fill="#c9c7cc" stroke="rgba(0,0,0,0.15)" stroke-width="1" vector-effect="non-scaling-stroke" stroke-linejoin="round"></polygon><polygon points="-230.77,253.85 230.77,253.85 230.77,238.46 -230.77,238.46" fill="#3a3a3f"></polygon><polygon points="-231.94,240.31 -140.16,240.31 -140.16,122.48 -231.94,122.48" fill="#c7bda8" stroke="rgba(0,0,0,0.28)" stroke-width="1" vector-effect="non-scaling-stroke" stroke-linejoin="round"></polygon><polygon points="-231.94,240.31 -140.16,240.31 -140.16,122.48 -231.94,122.48" fill="url(#r63sh)"></polygon><line x1="-186.06" y1="239.55" x2="-186.06" y2="123.27" stroke="rgba(0,0,0,0.28)" stroke-width="1" stroke-linecap="round" vector-effect="non-scaling-stroke"></line><polygon points="-138.91,240.31 -47.13,240.31 -47.13,122.48 -138.91,122.48" fill="#c7bda8" stroke="rgba(0,0,0,0.28)" stroke-width="1" vector-effect="non-scaling-stroke" stroke-linejoin="round"></polygon><polygon points="-138.91,240.31 -47.13,240.31 -47.13,122.48 -138.91,122.48" fill="url(#r63sh)"></polygon><polygon points="-138.15,130.24 -47.91,130.24 -47.91,123.73 -138.15,123.73" fill="#262b30"></polygon><polygon points="-99.40,127.00 -100.09,125.79 -101.49,125.79 -102.19,127.00 -101.49,128.21 -100.09,128.21" fill="#9aa3ad"></polygon><polygon points="-91.64,127.00 -92.34,125.79 -93.74,125.79 -94.43,127.00 -93.74,128.21 -92.34,128.21" fill="#9aa3ad"></polygon><polygon points="-83.89,127.00 -84.59,125.79 -85.98,125.79 -86.68,127.00 -85.98,128.21 -84.59,128.21" fill="#9aa3ad"></polygon><polygon points="-45.89,240.31 45.89,240.31 45.89,122.48 -45.89,122.48" fill="#c7bda8" stroke="rgba(0,0,0,0.28)" stroke-width="1" vector-effect="non-scaling-stroke" stroke-linejoin="round"></polygon><polygon points="-45.89,240.31 45.89,240.31 45.89,122.48 -45.89,122.48" fill="url(#r63sh)"></polygon><line x1="-44.96" y1="201.05" x2="44.96" y2="201.05" stroke="rgba(0,0,0,0.28)" stroke-width="1" stroke-linecap="round" vector-effect="non-scaling-stroke"></line><line x1="-44.96" y1="161.77" x2="44.96" y2="161.77" stroke="rgba(0,0,0,0.28)" stroke-width="1" stroke-linecap="round" vector-effect="non-scaling-stroke"></line><polygon points="47.13,240.31 138.91,240.31 138.91,122.48 47.13,122.48" fill="#c7bda8" stroke="rgba(0,0,0,0.28)" stroke-width="1" vector-effect="non-scaling-stroke" stroke-linejoin="round"></polygon><polygon points="47.13,240.31 138.91,240.31 138.91,122.48 47.13,122.48" fill="url(#r63sh)"></polygon><line x1="93.03" y1="239.55" x2="93.03" y2="123.27" stroke="rgba(0,0,0,0.28)" stroke-width="1" stroke-linecap="round" vector-effect="non-scaling-stroke"></line><polygon points="140.47,240.31 231.63,240.31 231.63,-46.51 140.47,-46.51" fill="#d3d7db" stroke="#9aa3ad" stroke-width="1" vector-effect="non-scaling-stroke" stroke-linejoin="round"></polygon><polygon points="140.47,240.31 231.63,240.31 231.63,-46.51 140.47,-46.51" fill="url(#r63sh)"></polygon><line x1="140.79" y1="142.81" x2="231.35" y2="142.81" stroke="#9aa3ad" stroke-width="1.4" stroke-linecap="round" vector-effect="non-scaling-stroke"></line><line x1="147.31" y1="130.40" x2="147.31" y2="77.68" stroke="#8f98a2" stroke-width="2.6" stroke-linecap="round" vector-effect="non-scaling-stroke"></line><line x1="147.31" y1="189.33" x2="147.31" y2="152.11" stroke="#8f98a2" stroke-width="2.6" stroke-linecap="round" vector-effect="non-scaling-stroke"></line><polygon points="176.77,-24.81 195.38,-24.81 195.38,-32.56 176.77,-32.56" fill="#2a3036"></polygon><polygon points="140.16,-49.61 231.94,-49.61 231.94,-115.81 140.16,-115.81" fill="#c7bda8" stroke="rgba(0,0,0,0.28)" stroke-width="1" vector-effect="non-scaling-stroke" stroke-linejoin="round"></polygon><polygon points="140.16,-49.61 231.94,-49.61 231.94,-115.81 140.16,-115.81" fill="url(#r63sh)"></polygon><polygon points="-212.77,106.38 127.66,106.38 139.97,116.64 -233.28,116.64" fill="#bf9569" stroke="rgba(0,0,0,0.12)" stroke-width="1" vector-effect="non-scaling-stroke" stroke-linejoin="round"></polygon><polygon points="-233.28,122.86 139.97,122.86 139.97,116.64 -233.28,116.64" fill="#9d774e"></polygon><line x1="-217.55" y1="108.70" x2="130.53" y2="108.70" stroke="rgba(90,55,20,0.12)" stroke-width="1" stroke-linecap="round" vector-effect="non-scaling-stroke"></line><line x1="-222.55" y1="111.20" x2="133.53" y2="111.20" stroke="rgba(90,55,20,0.12)" stroke-width="1" stroke-linecap="round" vector-effect="non-scaling-stroke"></line><line x1="-227.79" y1="113.82" x2="136.67" y2="113.82" stroke="rgba(90,55,20,0.12)" stroke-width="1" stroke-linecap="round" vector-effect="non-scaling-stroke"></line><polygon points="-209.77,107.61 -135.06,107.61 -143.51,114.35 -222.90,114.35" fill="#c9ced4" stroke="#9aa3ad" stroke-width="1" vector-effect="non-scaling-stroke" stroke-linejoin="round"></polygon><polygon points="-206.35,108.01 -139.97,108.01 -147.42,113.75 -217.33,113.75" fill="#aab2ba"></polygon><line x1="-171.43" y1="107.14" x2="-171.43" y2="72.86" stroke="#8a939c" stroke-width="2.6" stroke-linecap="round" vector-effect="non-scaling-stroke"></line><line x1="-171.43" y1="72.86" x2="-174.42" y2="77.03" stroke="#8a939c" stroke-width="2.6" stroke-linecap="round" vector-effect="non-scaling-stroke"></line><polygon points="48.78,107.46 123.39,107.46 131.70,114.70 52.07,114.70" fill="#18181b" stroke="#3f3f46" stroke-width="1" vector-effect="non-scaling-stroke" stroke-linejoin="round"></polygon><polygon points="78.72,109.04 78.05,109.52 75.48,109.91 71.49,110.13 66.91,110.13 62.65,109.91 59.58,109.52 58.31,109.04 59.06,108.56 61.66,108.17 65.59,107.96 70.09,107.96 74.28,108.17 77.36,108.56" fill="none" stroke="#52525b" stroke-width="1" vector-effect="non-scaling-stroke" stroke-linejoin="round"></polygon><polygon points="116.62,109.04 116.12,109.52 113.68,109.91 109.78,110.13 105.19,110.13 100.86,109.91 97.65,109.52 96.21,109.04 96.79,108.56 99.26,108.17 103.12,107.96 107.61,107.96 111.88,108.17 115.10,108.56" fill="none" stroke="#52525b" stroke-width="1" vector-effect="non-scaling-stroke" stroke-linejoin="round"></polygon><polygon points="81.33,112.65 80.65,113.17 78.00,113.59 73.89,113.82 69.15,113.82 64.74,113.59 61.57,113.17 60.24,112.65 61.01,112.14 63.69,111.73 67.74,111.50 72.39,111.50 76.72,111.73 79.92,112.14" fill="none" stroke="#52525b" stroke-width="1" vector-effect="non-scaling-stroke" stroke-linejoin="round"></polygon><polygon points="120.48,112.65 119.99,113.17 117.48,113.59 113.45,113.82 108.71,113.82 104.23,113.59 100.90,113.17 99.40,112.65 99.98,112.14 102.52,111.73 106.50,111.50 111.14,111.50 115.56,111.73 118.89,112.14" fill="none" stroke="#52525b" stroke-width="1" vector-effect="non-scaling-stroke" stroke-linejoin="round"></polygon><polygon points="47.98,43.48 131.93,43.48 131.93,29.99 47.98,29.99" fill="#c3c9cf" stroke="#8f979f" stroke-width="1" vector-effect="non-scaling-stroke" stroke-linejoin="round"></polygon><polygon points="-147.29,255.81 -180.95,314.29 -180.95,295.24 -147.29,240.31" fill="#3a3a3f"></polygon><polygon points="-139.62,240.46 -153.74,264.78 -153.74,134.95 -139.62,122.56" fill="#c7bda8" stroke="rgba(0,0,0,0.28)" stroke-width="1" vector-effect="non-scaling-stroke" stroke-linejoin="round"></polygon><polygon points="-139.62,240.46 -153.74,264.78 -153.74,134.95 -139.62,122.56" fill="url(#r63sh)"></polygon><polygon points="-139.62,240.46 -153.74,264.78 -153.74,134.95 -139.62,122.56" fill="#000000" fill-opacity="0.09"></polygon><line x1="-139.67" y1="201.35" x2="-153.50" y2="221.27" stroke="rgba(0,0,0,0.28)" stroke-width="1" stroke-linecap="round" vector-effect="non-scaling-stroke"></line><line x1="-139.67" y1="162.01" x2="-153.50" y2="178.04" stroke="rgba(0,0,0,0.28)" stroke-width="1" stroke-linecap="round" vector-effect="non-scaling-stroke"></line><polygon points="-153.95,265.14 -171.30,295.01 -171.30,228.97 -153.95,205.78" fill="#c7bda8" stroke="rgba(0,0,0,0.28)" stroke-width="1" vector-effect="non-scaling-stroke" stroke-linejoin="round"></polygon><polygon points="-153.95,265.14 -171.30,295.01 -171.30,228.97 -153.95,205.78" fill="url(#r63sh)"></polygon><polygon points="-153.95,265.14 -171.30,295.01 -171.30,228.97 -153.95,205.78" fill="#000000" fill-opacity="0.09"></polygon><polygon points="-153.95,205.27 -171.30,228.40 -171.30,162.35 -153.95,145.91" fill="#c7bda8" stroke="rgba(0,0,0,0.28)" stroke-width="1" vector-effect="non-scaling-stroke" stroke-linejoin="round"></polygon><polygon points="-153.95,205.27 -171.30,228.40 -171.30,162.35 -153.95,145.91" fill="url(#r63sh)"></polygon><polygon points="-153.95,205.27 -171.30,228.40 -171.30,162.35 -153.95,145.91" fill="#000000" fill-opacity="0.09"></polygon><polygon points="-153.95,145.40 -171.30,161.78 -171.30,48.15 -153.95,43.28" fill="#20252a" stroke="#0e1114" stroke-width="1" vector-effect="non-scaling-stroke" stroke-linejoin="round"></polygon><polygon points="-153.95,145.40 -171.30,161.78 -171.30,48.15 -153.95,43.28" fill="url(#r63sh)"></polygon><polygon points="-153.95,145.40 -171.30,161.78 -171.30,48.15 -153.95,43.28" fill="#000000" fill-opacity="0.09"></polygon><polygon points="-155.34,139.90 -169.38,152.54 -169.38,73.45 -155.34,67.36" fill="#1e2226" stroke="#3b444c" stroke-width="1" vector-effect="non-scaling-stroke" stroke-linejoin="round"></polygon><polygon points="-158.59,59.96 -165.60,62.62 -165.60,56.17 -158.59,53.79" fill="#0a0c0e"></polygon><polygon points="-157.64,49.10 -157.51,47.20 -157.22,46.34 -156.93,47.03 -156.81,48.84 -156.93,50.73 -157.22,51.59 -157.51,50.92" fill="#9aa3ad"></polygon><polygon points="-162.42,50.59 -162.29,48.63 -161.98,47.75 -161.67,48.45 -161.55,50.31 -161.67,52.26 -161.98,53.15 -162.29,52.46" fill="#9aa3ad"></polygon><polygon points="-167.51,52.17 -167.37,50.15 -167.04,49.24 -166.71,49.96 -166.57,51.88 -166.71,53.89 -167.04,54.81 -167.37,54.10" fill="#9aa3ad"></polygon><line x1="-155.03" y1="72.41" x2="-169.66" y2="79.25" stroke="#c3cad0" stroke-width="2.6" stroke-linecap="round" vector-effect="non-scaling-stroke"></line><polygon points="-153.95,42.76 -171.30,47.58 -171.30,-24.17 -153.95,-21.72" fill="#2a3036" stroke="#0e1114" stroke-width="1" vector-effect="non-scaling-stroke" stroke-linejoin="round"></polygon><polygon points="-153.95,42.76 -171.30,47.58 -171.30,-24.17 -153.95,-21.72" fill="url(#r63sh)"></polygon><polygon points="-153.95,42.76 -171.30,47.58 -171.30,-24.17 -153.95,-21.72" fill="#000000" fill-opacity="0.09"></polygon><polygon points="-154.27,37.74 -166.37,40.70 -166.37,-18.50 -154.27,-17.15" fill="#1e2226" stroke="#4a545d" stroke-width="1" vector-effect="non-scaling-stroke" stroke-linejoin="round"></polygon><polygon points="-167.47,-3.72 -170.48,-3.79 -170.48,-17.06 -167.47,-16.76" fill="#0f1215"></polygon><polygon points="-169.24,35.77 -169.09,33.61 -168.73,32.66 -168.37,33.47 -168.23,35.55 -168.37,37.70 -168.73,38.66 -169.09,37.86" fill="#9aa3ad"></polygon><polygon points="-169.24,24.47 -169.09,22.32 -168.73,21.40 -168.37,22.23 -168.23,24.33 -168.37,26.47 -168.73,27.40 -169.09,26.58" fill="#9aa3ad"></polygon><line x1="-166.89" y1="38.98" x2="-166.89" y2="-16.70" stroke="#c3cad0" stroke-width="2.2" stroke-linecap="round" vector-effect="non-scaling-stroke"></line><polygon points="-153.95,-22.24 -171.30,-24.74 -171.30,-142.18 -153.95,-127.78" fill="#c7bda8" stroke="rgba(0,0,0,0.28)" stroke-width="1" vector-effect="non-scaling-stroke" stroke-linejoin="round"></polygon><polygon points="-153.95,-22.24 -171.30,-24.74 -171.30,-142.18 -153.95,-127.78" fill="url(#r63sh)"></polygon><polygon points="-153.95,-22.24 -171.30,-24.74 -171.30,-142.18 -153.95,-127.78" fill="#000000" fill-opacity="0.09"></polygon><polygon points="-285.71,295.24 -171.43,295.24 -171.43,-142.86 -285.71,-142.86" fill="#c9c7cc" stroke="rgba(0,0,0,0.15)" stroke-width="1" vector-effect="non-scaling-stroke" stroke-linejoin="round"></polygon><polygon points="-232.56,116.28 -256.41,128.21 -150.43,128.21 -136.43,116.28" fill="#bf9569" stroke="rgba(0,0,0,0.12)" stroke-width="1" vector-effect="non-scaling-stroke" stroke-linejoin="round"></polygon><polygon points="-136.43,122.48 -150.43,135.04 -150.43,128.21 -136.43,116.28" fill="#9d774e"></polygon><line x1="-208.53" y1="116.20" x2="-229.91" y2="128.12" stroke="rgba(90,55,20,0.12)" stroke-width="1" stroke-linecap="round" vector-effect="non-scaling-stroke"></line><line x1="-184.50" y1="116.20" x2="-203.42" y2="128.12" stroke="rgba(90,55,20,0.12)" stroke-width="1" stroke-linecap="round" vector-effect="non-scaling-stroke"></line><line x1="-160.47" y1="116.20" x2="-176.92" y2="128.12" stroke="rgba(90,55,20,0.12)" stroke-width="1" stroke-linecap="round" vector-effect="non-scaling-stroke"></line></svg>