<?xml version="1.0" encoding="UTF-8"?>
<svg xmlns="http://www.w3.org/2000/svg" viewBox="-321.9 -197.7 590.1 566.9" preserveAspectRatio="xMidYMid meet" style="overflow: hidden;"><defs><linearGradient id="r66sh" x1="0" y1="0" x2="0" y2="1"><stop offset="0" stop-color="#ffffff" stop-opacity="0.16"></stop><stop offset="0.55" stop-color="#ffffff" stop-opacity="0"></stop><stop offset="1" stop-color="#000000" stop-opacity="0.10"></stop></linearGradient><linearGradient id="r66gl" x1="0" y1="0" x2="0" y2="1"><stop offset="0" stop-color="#fff1cf" stop-opacity="0.95"></stop><stop offset="0.5" stop-color="#fff1cf" stop-opacity="0.45"></stop><stop offset="1" stop-color="#fff1cf" stop-opacity="0"></stop></linearGradient><radialGradient id="r66lg"><stop offset="0" stop-color="#ffe9a8" stop-opacity="0.55"></stop><stop offset="1" stop-color="#ffe9a8" stop-opacity="0"></stop></radialGradient></defs><polygon points="-212.77,234.04 581.56,234.04 581.56,-106.38 -212.77,-106.38" fill="#efe8de"></polygon><polygon points="-212.77,234.04 -322.58,354.84 -322.58,-161.29 -212.77,-106.38" fill="#e2d8ca"></polygon><polygon points="-212.77,234.04 581.56,234.04 881.72,354.84 -322.58,354.84" fill="#ccb08d"></polygon><line x1="-212.77" y1="234.04" x2="-322.58" y2="354.84" stroke="rgba(90,60,30,0.10)" stroke-width="1" stroke-linecap="round" vector-effect="non-scaling-stroke"></line><line x1="-181.56" y1="234.04" x2="-275.27" y2="354.84" stroke="rgba(90,60,30,0.10)" stroke-width="1" stroke-linecap="round" vector-effect="non-scaling-stroke"></line><line x1="-150.35" y1="234.04" x2="-227.96" y2="354.84" stroke="rgba(90,60,30,0.10)" stroke-width="1" stroke-linecap="round" vector-effect="non-scaling-stroke"></line><line x1="-119.15" y1="234.04" x2="-180.65" y2="354.84" stroke="rgba(90,60,30,0.10)" stroke-width="1" stroke-linecap="round" vector-effect="non-scaling-stroke"></line><line x1="-87.94" y1="234.04" x2="-133.33" y2="354.84" stroke="rgba(90,60,30,0.10)" stroke-width="1" stroke-linecap="round" vector-effect="non-scaling-stroke"></line><line x1="-56.74" y1="234.04" x2="-86.02" y2="354.84" stroke="rgba(90,60,30,0.10)" stroke-width="1" stroke-linecap="round" vector-effect="non-scaling-stroke"></line><line x1="-25.53" y1="234.04" x2="-38.71" y2="354.84" stroke="rgba(90,60,30,0.10)" stroke-width="1" stroke-linecap="round" vector-effect="non-scaling-stroke"></line><line x1="5.67" y1="234.04" x2="8.60" y2="354.84" stroke="rgba(90,60,30,0.10)" stroke-width="1" stroke-linecap="round" vector-effect="non-scaling-stroke"></line><line x1="36.88" y1="234.04" x2="55.91" y2="354.84" stroke="rgba(90,60,30,0.10)" stroke-width="1" stroke-linecap="round" vector-effect="non-scaling-stroke"></line><line x1="68.09" y1="234.04" x2="103.23" y2="354.84" stroke="rgba(90,60,30,0.10)" stroke-width="1" stroke-linecap="round" vector-effect="non-scaling-stroke"></line><line x1="99.29" y1="234.04" x2="150.54" y2="354.84" stroke="rgba(90,60,30,0.10)" stroke-width="1" stroke-linecap="round" vector-effect="non-scaling-stroke"></line><line x1="130.50" y1="234.04" x2="197.85" y2="354.84" stroke="rgba(90,60,30,0.10)" stroke-width="1" stroke-linecap="round" vector-effect="non-scaling-stroke"></line><line x1="161.70" y1="234.04" x2="245.16" y2="354.84" stroke="rgba(90,60,30,0.10)" stroke-width="1" stroke-linecap="round" vector-effect="non-scaling-stroke"></line><line x1="192.91" y1="234.04" x2="292.47" y2="354.84" stroke="rgba(90,60,30,0.10)" stroke-width="1" stroke-linecap="round" vector-effect="non-scaling-stroke"></line><line x1="224.11" y1="234.04" x2="339.78" y2="354.84" stroke="rgba(90,60,30,0.10)" stroke-width="1" stroke-linecap="round" vector-effect="non-scaling-stroke"></line><line x1="255.32" y1="234.04" x2="387.10" y2="354.84" stroke="rgba(90,60,30,0.10)" stroke-width="1" stroke-linecap="round" vector-effect="non-scaling-stroke"></line><line x1="286.52" y1="234.04" x2="434.41" y2="354.84" stroke="rgba(90,60,30,0.10)" stroke-width="1" stroke-linecap="round" vector-effect="non-scaling-stroke"></line><line x1="317.73" y1="234.04" x2="481.72" y2="354.84" stroke="rgba(90,60,30,0.10)" stroke-width="1" stroke-linecap="round" vector-effect="non-scaling-stroke"></line><line x1="348.94" y1="234.04" x2="529.03" y2="354.84" stroke="rgba(90,60,30,0.10)" stroke-width="1" stroke-linecap="round" vector-effect="non-scaling-stroke"></line><line x1="380.14" y1="234.04" x2="576.34" y2="354.84" stroke="rgba(90,60,30,0.10)" stroke-width="1" stroke-linecap="round" vector-effect="non-scaling-stroke"></line><line x1="411.35" y1="234.04" x2="623.66" y2="354.84" stroke="rgba(90,60,30,0.10)" stroke-width="1" stroke-linecap="round" vector-effect="non-scaling-stroke"></line><line x1="442.55" y1="234.04" x2="670.97" y2="354.84" stroke="rgba(90,60,30,0.10)" stroke-width="1" stroke-linecap="round" vector-effect="non-scaling-stroke"></line><line x1="473.76" y1="234.04" x2="718.28" y2="354.84" stroke="rgba(90,60,30,0.10)" stroke-width="1" stroke-linecap="round" vector-effect="non-scaling-stroke"></line><line x1="504.96" y1="234.04" x2="765.59" y2="354.84" stroke="rgba(90,60,30,0.10)" stroke-width="1" stroke-linecap="round" vector-effect="non-scaling-stroke"></line><line x1="536.17" y1="234.04" x2="812.90" y2="354.84" stroke="rgba(90,60,30,0.10)" stroke-width="1" stroke-linecap="round" vector-effect="non-scaling-stroke"></line><line x1="567.38" y1="234.04" x2="860.22" y2="354.84" stroke="rgba(90,60,30,0.10)" stroke-width="1" stroke-linecap="round" vector-effect="non-scaling-stroke"></line><polygon points="-212.83,106.41 127.70,106.41 127.70,28.38 -212.83,28.38" fill="#f8f6f2" stroke="rgba(0,0,0,0.05)" stroke-width="1" vector-effect="non-scaling-stroke" stroke-linejoin="round"></polygon><line x1="-212.86" y1="106.43" x2="-212.86" y2="28.38" stroke="rgba(0,0,0,0.06)" stroke-width="1" stroke-linecap="round" vector-effect="non-scaling-stroke"></line><line x1="-191.57" y1="106.43" x2="-191.57" y2="28.38" stroke="rgba(0,0,0,0.06)" stroke-width="1" stroke-linecap="round" vector-effect="non-scaling-stroke"></line><line x1="-170.29" y1="106.43" x2="-170.29" y2="28.38" stroke="rgba(0,0,0,0.06)" stroke-width="1" stroke-linecap="round" vector-effect="non-scaling-stroke"></line><line x1="-149.00" y1="106.43" x2="-149.00" y2="28.38" stroke="rgba(0,0,0,0.06)" stroke-width="1" stroke-linecap="round" vector-effect="non-scaling-stroke"></line><line x1="-127.71" y1="106.43" x2="-127.71" y2="28.38" stroke="rgba(0,0,0,0.06)" stroke-width="1" stroke-linecap="round" vector-effect="non-scaling-stroke"></line><line x1="-106.43" y1="106.43" x2="-106.43" y2="28.38" stroke="rgba(0,0,0,0.06)" stroke-width="1" stroke-linecap="round" vector-effect="non-scaling-stroke"></line><line x1="-85.14" y1="106.43" x2="-85.14" y2="28.38" stroke="rgba(0,0,0,0.06)" stroke-width="1" stroke-linecap="round" vector-effect="non-scaling-stroke"></line><line x1="-63.86" y1="106.43" x2="-63.86" y2="28.38" stroke="rgba(0,0,0,0.06)" stroke-width="1" stroke-linecap="round" vector-effect="non-scaling-stroke"></line><line x1="-42.57" y1="106.43" x2="-42.57" y2="28.38" stroke="rgba(0,0,0,0.06)" stroke-width="1" stroke-linecap="round" vector-effect="non-scaling-stroke"></line><line x1="-21.29" y1="106.43" x2="-21.29" y2="28.38" stroke="rgba(0,0,0,0.06)" stroke-width="1" stroke-linecap="round" vector-effect="non-scaling-stroke"></line><line x1="0.00" y1="106.43" x2="0.00" y2="28.38" stroke="rgba(0,0,0,0.06)" stroke-width="1" stroke-linecap="round" vector-effect="non-scaling-stroke"></line><line x1="21.29" y1="106.43" x2="21.29" y2="28.38" stroke="rgba(0,0,0,0.06)" stroke-width="1" stroke-linecap="round" vector-effect="non-scaling-stroke"></line><line x1="42.57" y1="106.43" x2="42.57" y2="28.38" stroke="rgba(0,0,0,0.06)" stroke-width="1" stroke-linecap="round" vector-effect="non-scaling-stroke"></line><line x1="63.86" y1="106.43" x2="63.86" y2="28.38" stroke="rgba(0,0,0,0.06)" stroke-width="1" stroke-linecap="round" vector-effect="non-scaling-stroke"></line><line x1="85.14" y1="106.43" x2="85.14" y2="28.38" stroke="rgba(0,0,0,0.06)" stroke-width="1" stroke-linecap="round" vector-effect="non-scaling-stroke"></line><line x1="106.43" y1="106.43" x2="106.43" y2="28.38" stroke="rgba(0,0,0,0.06)" stroke-width="1" stroke-linecap="round" vector-effect="non-scaling-stroke"></line><line x1="-212.86" y1="90.82" x2="127.71" y2="90.82" stroke="rgba(0,0,0,0.06)" stroke-width="1" stroke-linecap="round" vector-effect="non-scaling-stroke"></line><line x1="-212.86" y1="75.21" x2="127.71" y2="75.21" stroke="rgba(0,0,0,0.06)" stroke-width="1" stroke-linecap="round" vector-effect="non-scaling-stroke"></line><line x1="-212.86" y1="59.60" x2="127.71" y2="59.60" stroke="rgba(0,0,0,0.06)" stroke-width="1" stroke-linecap="round" vector-effect="non-scaling-stroke"></line><line x1="-212.86" y1="43.99" x2="127.71" y2="43.99" stroke="rgba(0,0,0,0.06)" stroke-width="1" stroke-linecap="round" vector-effect="non-scaling-stroke"></line><polygon points="-212.48,106.38 -285.33,142.86 -285.33,38.10 -212.48,28.37" fill="#f1eee8"></polygon><polygon points="-212.90,76.64 -127.74,76.64 -127.74,28.39 -212.90,28.39" fill="url(#r66gl)"></polygon><line x1="-222.80" y1="30.70" x2="-134.87" y2="30.70" stroke="#fffbe3" stroke-width="3" stroke-linecap="round" vector-effect="non-scaling-stroke"></line><polygon points="-127.74,76.64 -42.58,76.64 -42.58,28.39 -127.74,28.39" fill="url(#r66gl)"></polygon><line x1="-133.38" y1="30.70" x2="-45.45" y2="30.70" stroke="#fffbe3" stroke-width="3" stroke-linecap="round" vector-effect="non-scaling-stroke"></line><polygon points="-42.58,76.64 42.58,76.64 42.58,28.39 -42.58,28.39" fill="url(#r66gl)"></polygon><line x1="-43.96" y1="30.70" x2="43.96" y2="30.70" stroke="#fffbe3" stroke-width="3" stroke-linecap="round" vector-effect="non-scaling-stroke"></line><polygon points="42.58,76.64 127.74,76.64 127.74,28.39 42.58,28.39" fill="url(#r66gl)"></polygon><line x1="45.45" y1="30.70" x2="133.38" y2="30.70" stroke="#fffbe3" stroke-width="3" stroke-linecap="round" vector-effect="non-scaling-stroke"></line><polygon points="-223.21,80.60 -245.16,88.52 -245.16,32.79 -223.21,29.85" fill="url(#r66gl)"></polygon><line x1="-173.26" y1="30.77" x2="-190.01" y2="33.74" stroke="#fffbe3" stroke-width="3" stroke-linecap="round" vector-effect="non-scaling-stroke"></line><polygon points="-231.12,254.08 231.12,254.08 238.47,262.16 -238.47,262.16" fill="url(#r66gl)"></polygon><polygon points="-145.74,255.66 -179.05,314.10 -140.95,314.10 -114.73,255.66" fill="url(#r66gl)"></polygon><polygon points="-212.89,48.25 -127.73,48.25 -127.73,28.38 -212.89,28.38" fill="rgba(0,0,0,0.07)"></polygon><polygon points="-223.28,29.85 -134.93,29.85 -134.93,-77.61 -223.28,-77.61" fill="#2c3f82" stroke="rgba(255,255,255,0.28)" stroke-width="1" vector-effect="non-scaling-stroke" stroke-linejoin="round"></polygon><polygon points="-223.28,29.85 -134.93,29.85 -134.93,-77.61 -223.28,-77.61" fill="url(#r66sh)"></polygon><line x1="-179.12" y1="29.11" x2="-179.12" y2="-76.87" stroke="rgba(255,255,255,0.28)" stroke-width="1" stroke-linecap="round" vector-effect="non-scaling-stroke"></line><polygon points="-127.73,48.25 -42.58,48.25 -42.58,28.38 -127.73,28.38" fill="rgba(0,0,0,0.07)"></polygon><polygon points="-133.73,29.85 -45.37,29.85 -45.37,-77.61 -133.73,-77.61" fill="#2c3f82" stroke="rgba(255,255,255,0.28)" stroke-width="1" vector-effect="non-scaling-stroke" stroke-linejoin="round"></polygon><polygon points="-133.73,29.85 -45.37,29.85 -45.37,-77.61 -133.73,-77.61" fill="url(#r66sh)"></polygon><polygon points="-42.58,48.25 42.58,48.25 42.58,28.38 -42.58,28.38" fill="rgba(0,0,0,0.07)"></polygon><polygon points="-44.18,29.85 44.18,29.85 44.18,-77.61 -44.18,-77.61" fill="#2c3f82" stroke="rgba(255,255,255,0.28)" stroke-width="1" vector-effect="non-scaling-stroke" stroke-linejoin="round"></polygon><polygon points="-44.18,29.85 44.18,29.85 44.18,-77.61 -44.18,-77.61" fill="url(#r66sh)"></polygon><line x1="0.00" y1="29.11" x2="0.00" y2="-76.87" stroke="rgba(255,255,255,0.28)" stroke-width="1" stroke-linecap="round" vector-effect="non-scaling-stroke"></line><polygon points="42.58,48.25 127.73,48.25 127.73,28.38 42.58,28.38" fill="rgba(0,0,0,0.07)"></polygon><polygon points="45.37,29.85 133.73,29.85 133.73,-77.61 45.37,-77.61" fill="#2c3f82" stroke="rgba(255,255,255,0.28)" stroke-width="1" vector-effect="non-scaling-stroke" stroke-linejoin="round"></polygon><polygon points="45.37,29.85 133.73,29.85 133.73,-77.61 45.37,-77.61" fill="url(#r66sh)"></polygon><polygon points="-171.74,29.87 -188.40,32.77 -188.40,-85.19 -171.74,-77.66" fill="#2c3f82" stroke="rgba(255,255,255,0.28)" stroke-width="1" vector-effect="non-scaling-stroke" stroke-linejoin="round"></polygon><polygon points="-171.74,29.87 -188.40,32.77 -188.40,-85.19 -171.74,-77.66" fill="url(#r66sh)"></polygon><polygon points="-171.74,29.87 -188.40,32.77 -188.40,-85.19 -171.74,-77.66" fill="#000000" fill-opacity="0.09"></polygon><line x1="-179.61" y1="30.47" x2="-179.61" y2="-80.47" stroke="rgba(255,255,255,0.28)" stroke-width="1" stroke-linecap="round" vector-effect="non-scaling-stroke"></line><polygon points="-245.90,32.79 -188.52,32.79 -188.52,-85.25 -245.90,-85.25" fill="#d9d9d8" stroke="rgba(0,0,0,0.15)" stroke-width="1" vector-effect="non-scaling-stroke" stroke-linejoin="round"></polygon><polygon points="-230.77,253.85 230.77,253.85 230.77,238.46 -230.77,238.46" fill="#3a3a3f"></polygon><polygon points="-231.94,240.31 -140.16,240.31 -140.16,122.48 -231.94,122.48" fill="#2c3f82" stroke="rgba(255,255,255,0.28)" stroke-width="1" vector-effect="non-scaling-stroke" stroke-linejoin="round"></polygon><polygon points="-231.94,240.31 -140.16,240.31 -140.16,122.48 -231.94,122.48" fill="url(#r66sh)"></polygon><polygon points="-232.58,127.92 -139.55,127.92 -139.55,122.49 -232.58,122.49" fill="#1f2328"></polygon><polygon points="-232.58,203.37 -139.55,203.37 -139.55,198.72 -232.58,198.72" fill="#1f2328"></polygon><polygon points="-232.58,164.10 -139.55,164.10 -139.55,159.44 -232.58,159.44" fill="#1f2328"></polygon><polygon points="-138.91,240.31 -47.13,240.31 -47.13,122.48 -138.91,122.48" fill="#2c3f82" stroke="rgba(255,255,255,0.28)" stroke-width="1" vector-effect="non-scaling-stroke" stroke-linejoin="round"></polygon><polygon points="-138.91,240.31 -47.13,240.31 -47.13,122.48 -138.91,122.48" fill="url(#r66sh)"></polygon><polygon points="-139.55,127.92 -46.52,127.92 -46.52,122.49 -139.55,122.49" fill="#1f2328"></polygon><line x1="-93.03" y1="239.55" x2="-93.03" y2="123.27" stroke="rgba(255,255,255,0.28)" stroke-width="1" stroke-linecap="round" vector-effect="non-scaling-stroke"></line><polygon points="-45.89,240.31 45.89,240.31 45.89,122.48 -45.89,122.48" fill="#2c3f82" stroke="rgba(255,255,255,0.28)" stroke-width="1" vector-effect="non-scaling-stroke" stroke-linejoin="round"></polygon><polygon points="-45.89,240.31 45.89,240.31 45.89,122.48 -45.89,122.48" fill="url(#r66sh)"></polygon><polygon points="-45.12,130.24 45.12,130.24 45.12,123.73 -45.12,123.73" fill="#262b30"></polygon><polygon points="-6.36,127.00 -7.06,125.79 -8.45,125.79 -9.15,127.00 -8.45,128.21 -7.06,128.21" fill="#9aa3ad"></polygon><polygon points="1.40,127.00 0.70,125.79 -0.70,125.79 -1.40,127.00 -0.70,128.21 0.70,128.21" fill="#9aa3ad"></polygon><polygon points="9.15,127.00 8.45,125.79 7.06,125.79 6.36,127.00 7.06,128.21 8.45,128.21" fill="#9aa3ad"></polygon><polygon points="47.13,240.31 138.91,240.31 138.91,122.48 47.13,122.48" fill="#2c3f82" stroke="rgba(255,255,255,0.28)" stroke-width="1" vector-effect="non-scaling-stroke" stroke-linejoin="round"></polygon><polygon points="47.13,240.31 138.91,240.31 138.91,122.48 47.13,122.48" fill="url(#r66sh)"></polygon><polygon points="46.52,127.92 139.55,127.92 139.55,122.49 46.52,122.49" fill="#1f2328"></polygon><line x1="93.03" y1="239.55" x2="93.03" y2="123.27" stroke="rgba(255,255,255,0.28)" stroke-width="1" stroke-linecap="round" vector-effect="non-scaling-stroke"></line><polygon points="140.16,240.31 231.94,240.31 231.94,146.95 140.16,146.95" fill="#2c3f82" stroke="rgba(255,255,255,0.28)" stroke-width="1" vector-effect="non-scaling-stroke" stroke-linejoin="round"></polygon><polygon points="140.16,240.31 231.94,240.31 231.94,146.95 140.16,146.95" fill="url(#r66sh)"></polygon><polygon points="139.55,151.14 232.58,151.14 232.58,146.49 139.55,146.49" fill="#1f2328"></polygon><polygon points="140.16,146.48 231.94,146.48 231.94,-35.19 140.16,-35.19" fill="#2c3f82" stroke="rgba(255,255,255,0.28)" stroke-width="1" vector-effect="non-scaling-stroke" stroke-linejoin="round"></polygon><polygon points="140.16,146.48 231.94,146.48 231.94,-35.19 140.16,-35.19" fill="url(#r66sh)"></polygon><polygon points="139.55,-31.01 232.58,-31.01 232.58,-35.66 139.55,-35.66" fill="#1f2328"></polygon><polygon points="140.16,-38.76 231.94,-38.76 231.94,-115.81 140.16,-115.81" fill="#2c3f82" stroke="rgba(255,255,255,0.28)" stroke-width="1" vector-effect="non-scaling-stroke" stroke-linejoin="round"></polygon><polygon points="140.16,-38.76 231.94,-38.76 231.94,-115.81 140.16,-115.81" fill="url(#r66sh)"></polygon><polygon points="139.55,-111.64 232.58,-111.64 232.58,-116.29 139.55,-116.29" fill="#1f2328"></polygon><polygon points="-212.77,106.38 127.66,106.38 139.97,116.64 -233.28,116.64" fill="#e8e5e2" stroke="rgba(0,0,0,0.12)" stroke-width="1" vector-effect="non-scaling-stroke" stroke-linejoin="round"></polygon><polygon points="-233.28,122.86 139.97,122.86 139.97,116.64 -233.28,116.64" fill="#c4c1be"></polygon><polygon points="-123.56,107.61 -48.85,107.61 -51.91,114.35 -131.30,114.35" fill="#c9ced4" stroke="#9aa3ad" stroke-width="1" vector-effect="non-scaling-stroke" stroke-linejoin="round"></polygon><polygon points="-119.77,108.01 -53.39,108.01 -56.23,113.75 -126.14,113.75" fill="#aab2ba"></polygon><line x1="-85.71" y1="107.14" x2="-85.71" y2="72.86" stroke="#8a939c" stroke-width="2.6" stroke-linecap="round" vector-effect="non-scaling-stroke"></line><line x1="-85.71" y1="72.86" x2="-87.21" y2="77.03" stroke="#8a939c" stroke-width="2.6" stroke-linecap="round" vector-effect="non-scaling-stroke"></line><polygon points="48.78,107.46 123.39,107.46 131.70,114.70 52.07,114.70" fill="#18181b" stroke="#3f3f46" stroke-width="1" vector-effect="non-scaling-stroke" stroke-linejoin="round"></polygon><polygon points="78.72,109.04 78.05,109.52 75.48,109.91 71.49,110.13 66.91,110.13 62.65,109.91 59.58,109.52 58.31,109.04 59.06,108.56 61.66,108.17 65.59,107.96 70.09,107.96 74.28,108.17 77.36,108.56" fill="none" stroke="#52525b" stroke-width="1" vector-effect="non-scaling-stroke" stroke-linejoin="round"></polygon><polygon points="116.62,109.04 116.12,109.52 113.68,109.91 109.78,110.13 105.19,110.13 100.86,109.91 97.65,109.52 96.21,109.04 96.79,108.56 99.26,108.17 103.12,107.96 107.61,107.96 111.88,108.17 115.10,108.56" fill="none" stroke="#52525b" stroke-width="1" vector-effect="non-scaling-stroke" stroke-linejoin="round"></polygon><polygon points="81.33,112.65 80.65,113.17 78.00,113.59 73.89,113.82 69.15,113.82 64.74,113.59 61.57,113.17 60.24,112.65 61.01,112.14 63.69,111.73 67.74,111.50 72.39,111.50 76.72,111.73 79.92,112.14" fill="none" stroke="#52525b" stroke-width="1" vector-effect="non-scaling-stroke" stroke-linejoin="round"></polygon><polygon points="120.48,112.65 119.99,113.17 117.48,113.59 113.45,113.82 108.71,113.82 104.23,113.59 100.90,113.17 99.40,112.65 99.98,112.14 102.52,111.73 106.50,111.50 111.14,111.50 115.56,111.73 118.89,112.14" fill="none" stroke="#52525b" stroke-width="1" vector-effect="non-scaling-stroke" stroke-linejoin="round"></polygon><polygon points="47.98,43.48 131.93,43.48 131.93,29.99 47.98,29.99" fill="#c3c9cf" stroke="#8f979f" stroke-width="1" vector-effect="non-scaling-stroke" stroke-linejoin="round"></polygon><polygon points="-147.29,255.81 -180.95,314.29 -180.95,295.24 -147.29,240.31" fill="#3a3a3f"></polygon><polygon points="-139.62,240.46 -153.74,264.78 -153.74,134.95 -139.62,122.56" fill="#2c3f82" stroke="rgba(255,255,255,0.28)" stroke-width="1" vector-effect="non-scaling-stroke" stroke-linejoin="round"></polygon><polygon points="-139.62,240.46 -153.74,264.78 -153.74,134.95 -139.62,122.56" fill="url(#r66sh)"></polygon><polygon points="-139.62,240.46 -153.74,264.78 -153.74,134.95 -139.62,122.56" fill="#000000" fill-opacity="0.09"></polygon><polygon points="-139.46,127.91 -153.76,141.03 -153.76,135.04 -139.46,122.48" fill="#1f2328"></polygon><polygon points="-139.46,203.36 -153.76,224.22 -153.76,219.09 -139.46,198.71" fill="#1f2328"></polygon><polygon points="-139.46,164.08 -153.76,180.91 -153.76,175.78 -139.46,159.43" fill="#1f2328"></polygon><polygon points="-153.95,265.14 -171.30,295.01 -171.30,228.97 -153.95,205.78" fill="#2c3f82" stroke="rgba(255,255,255,0.28)" stroke-width="1" vector-effect="non-scaling-stroke" stroke-linejoin="round"></polygon><polygon points="-153.95,265.14 -171.30,295.01 -171.30,228.97 -153.95,205.78" fill="url(#r66sh)"></polygon><polygon points="-153.95,265.14 -171.30,295.01 -171.30,228.97 -153.95,205.78" fill="#000000" fill-opacity="0.09"></polygon><polygon points="-153.76,210.26 -171.33,234.29 -171.33,228.57 -153.76,205.13" fill="#1f2328"></polygon><polygon points="-153.95,205.27 -171.30,228.40 -171.30,152.84 -153.95,137.36" fill="#2c3f82" stroke="rgba(255,255,255,0.28)" stroke-width="1" vector-effect="non-scaling-stroke" stroke-linejoin="round"></polygon><polygon points="-153.95,205.27 -171.30,228.40 -171.30,152.84 -153.95,137.36" fill="url(#r66sh)"></polygon><polygon points="-153.95,205.27 -171.30,228.40 -171.30,152.84 -153.95,137.36" fill="#000000" fill-opacity="0.09"></polygon><polygon points="-153.76,141.88 -171.33,158.10 -171.33,152.38 -153.76,136.75" fill="#1f2328"></polygon><polygon points="-153.95,136.85 -171.30,152.26 -171.30,38.64 -153.95,34.72" fill="#20252a" stroke="#0e1114" stroke-width="1" vector-effect="non-scaling-stroke" stroke-linejoin="round"></polygon><polygon points="-153.95,136.85 -171.30,152.26 -171.30,38.64 -153.95,34.72" fill="url(#r66sh)"></polygon><polygon points="-153.95,136.85 -171.30,152.26 -171.30,38.64 -153.95,34.72" fill="#000000" fill-opacity="0.09"></polygon><polygon points="-155.34,131.26 -169.38,143.13 -169.38,64.03 -155.34,58.72" fill="#1e2226" stroke="#3b444c" stroke-width="1" vector-effect="non-scaling-stroke" stroke-linejoin="round"></polygon><polygon points="-158.59,51.15 -165.60,53.41 -165.60,46.96 -158.59,44.97" fill="#0a0c0e"></polygon><polygon points="-157.64,40.33 -157.51,38.44 -157.22,37.60 -156.93,38.30 -156.81,40.12 -156.93,42.00 -157.22,42.85 -157.51,42.16" fill="#9aa3ad"></polygon><polygon points="-162.42,41.55 -162.29,39.61 -161.98,38.74 -161.67,39.45 -161.55,41.33 -161.67,43.27 -161.98,44.14 -162.29,43.44" fill="#9aa3ad"></polygon><polygon points="-167.51,42.85 -167.37,40.84 -167.04,39.95 -166.71,40.68 -166.57,42.62 -166.71,44.62 -167.04,45.52 -167.37,44.79" fill="#9aa3ad"></polygon><line x1="-155.03" y1="63.79" x2="-169.66" y2="69.81" stroke="#c3cad0" stroke-width="2.6" stroke-linecap="round" vector-effect="non-scaling-stroke"></line><polygon points="-153.95,34.21 -171.30,38.07 -171.30,-142.18 -153.95,-127.78" fill="#2c3f82" stroke="rgba(255,255,255,0.28)" stroke-width="1" vector-effect="non-scaling-stroke" stroke-linejoin="round"></polygon><polygon points="-153.95,34.21 -171.30,38.07 -171.30,-142.18 -153.95,-127.78" fill="url(#r66sh)"></polygon><polygon points="-153.95,34.21 -171.30,38.07 -171.30,-142.18 -153.95,-127.78" fill="#000000" fill-opacity="0.09"></polygon><polygon points="-153.76,-123.08 -171.33,-137.14 -171.33,-142.86 -153.76,-128.21" fill="#1f2328"></polygon><polygon points="-285.71,295.24 -171.43,295.24 -171.43,-142.86 -285.71,-142.86" fill="#d9d9d8" stroke="rgba(0,0,0,0.15)" stroke-width="1" vector-effect="non-scaling-stroke" stroke-linejoin="round"></polygon><polygon points="-232.56,116.28 -256.41,128.21 -150.43,128.21 -136.43,116.28" fill="#e8e5e2" stroke="rgba(0,0,0,0.12)" stroke-width="1" vector-effect="non-scaling-stroke" stroke-linejoin="round"></polygon><polygon points="-136.43,122.48 -150.43,135.04 -150.43,128.21 -136.43,116.28" fill="#c4c1be"></polygon><polygon points="104.20,92.62 121.56,92.62 119.39,108.54 106.37,108.54" fill="#8b6b4f" stroke="rgba(0,0,0,0.25)" stroke-width="1" vector-effect="non-scaling-stroke" stroke-linejoin="round"></polygon><polygon points="112.88,92.62 102.76,74.65 82.21,76.31 92.33,94.28" fill="#4f8a55" stroke="rgba(20,60,30,0.35)" stroke-width="1" vector-effect="non-scaling-stroke" stroke-linejoin="round"></polygon><polygon points="112.90,92.63 110.48,66.97 86.16,58.42 88.58,84.08" fill="#3f7347" stroke="rgba(20,60,30,0.35)" stroke-width="1" vector-effect="non-scaling-stroke" stroke-linejoin="round"></polygon><polygon points="112.91,92.65 122.24,64.96 101.01,44.89 91.68,72.58" fill="#62a066" stroke="rgba(20,60,30,0.35)" stroke-width="1" vector-effect="non-scaling-stroke" stroke-linejoin="round"></polygon><polygon points="112.88,92.62 131.49,72.39 120.92,47.01 102.31,67.24" fill="#2f5f3a" stroke="rgba(20,60,30,0.35)" stroke-width="1" vector-effect="non-scaling-stroke" stroke-linejoin="round"></polygon><polygon points="112.90,92.63 135.77,82.74 136.37,57.83 113.50,67.72" fill="#4f8a55" stroke="rgba(20,60,30,0.35)" stroke-width="1" vector-effect="non-scaling-stroke" stroke-linejoin="round"></polygon><polygon points="112.91,92.65 132.68,92.86 141.15,75.00 121.38,74.79" fill="#3f7347" stroke="rgba(20,60,30,0.35)" stroke-width="1" vector-effect="non-scaling-stroke" stroke-linejoin="round"></polygon><polygon points="112.88,92.62 115.06,73.85 98.92,64.00 96.74,82.78" fill="#62a066" stroke="rgba(20,60,30,0.35)" stroke-width="1" vector-effect="non-scaling-stroke" stroke-linejoin="round"></polygon><polygon points="112.90,92.63 127.96,82.71 125.26,64.87 110.19,74.79" fill="#2f5f3a" stroke="rgba(20,60,30,0.35)" stroke-width="1" vector-effect="non-scaling-stroke" stroke-linejoin="round"></polygon><line x1="-118.48" y1="-118.48" x2="-118.48" y2="-67.93" stroke="#2b2f33" stroke-width="1.4" stroke-linecap="round" vector-effect="non-scaling-stroke"></line><polygon points="-125.59,-67.93 -111.37,-67.93 -111.37,-11.06 -125.59,-11.06" fill="#17191c" stroke="#000000" stroke-width="1" vector-effect="non-scaling-stroke" stroke-linejoin="round"></polygon><polygon points="-125.59,-15.80 -111.37,-15.80 -111.37,-11.06 -125.59,-11.06" fill="#d6a84f"></polygon><polygon points="-122.75,-11.06 -114.22,-11.06 -114.22,-9.79 -122.75,-9.79" fill="#fff2c4"></polygon><polygon points="-71.09,-6.32 -73.95,-9.56 -82.18,-12.41 -94.79,-14.53 -110.25,-15.65 -126.71,-15.65 -142.18,-14.53 -154.79,-12.41 -163.02,-9.56 -165.88,-6.32 -163.02,-3.08 -154.79,-0.23 -142.18,1.89 -126.71,3.02 -110.25,3.02 -94.79,1.89 -82.18,-0.23 -73.95,-3.08" fill="url(#r66lg)"></polygon><line x1="118.48" y1="-118.48" x2="118.48" y2="-67.93" stroke="#2b2f33" stroke-width="1.4" stroke-linecap="round" vector-effect="non-scaling-stroke"></line><polygon points="111.37,-67.93 125.59,-67.93 125.59,-11.06 111.37,-11.06" fill="#17191c" stroke="#000000" stroke-width="1" vector-effect="non-scaling-stroke" stroke-linejoin="round"></polygon><polygon points="111.37,-15.80 125.59,-15.80 125.59,-11.06 111.37,-11.06" fill="#d6a84f"></polygon><polygon points="114.22,-11.06 122.75,-11.06 122.75,-9.79 114.22,-9.79" fill="#fff2c4"></polygon><polygon points="165.88,-6.32 163.02,-9.56 154.79,-12.41 142.18,-14.53 126.71,-15.65 110.25,-15.65 94.79,-14.53 82.18,-12.41 73.95,-9.56 71.09,-6.32 73.95,-3.08 82.18,-0.23 94.79,1.89 110.25,3.02 126.71,3.02 142.18,1.89 154.79,-0.23 163.02,-3.08" fill="url(#r66lg)"></polygon></svg>