<?xml version="1.0" encoding="UTF-8"?>
<svg xmlns="http://www.w3.org/2000/svg" viewBox="-328.8 -197.7 702.1 566.9" preserveAspectRatio="xMidYMid meet" style="overflow: hidden;"><defs><linearGradient id="r64sh" x1="0" y1="0" x2="0" y2="1"><stop offset="0" stop-color="#ffffff" stop-opacity="0.16"></stop><stop offset="0.55" stop-color="#ffffff" stop-opacity="0"></stop><stop offset="1" stop-color="#000000" stop-opacity="0.10"></stop></linearGradient><linearGradient id="r64gl" x1="0" y1="0" x2="0" y2="1"><stop offset="0" stop-color="#ffd978" stop-opacity="0.95"></stop><stop offset="0.5" stop-color="#ffd978" stop-opacity="0.45"></stop><stop offset="1" stop-color="#ffd978" stop-opacity="0"></stop></linearGradient><radialGradient id="r64lg"><stop offset="0" stop-color="#ffe9a8" stop-opacity="0.55"></stop><stop offset="1" stop-color="#ffe9a8" stop-opacity="0"></stop></radialGradient></defs><polygon points="-212.77,234.04 581.56,234.04 581.56,-106.38 -212.77,-106.38" fill="#efe8de"></polygon><polygon points="-212.77,234.04 -322.58,354.84 -322.58,-161.29 -212.77,-106.38" fill="#e2d8ca"></polygon><polygon points="-212.77,234.04 581.56,234.04 881.72,354.84 -322.58,354.84" fill="#ccb08d"></polygon><line x1="-212.77" y1="234.04" x2="-322.58" y2="354.84" stroke="rgba(90,60,30,0.10)" stroke-width="1" stroke-linecap="round" vector-effect="non-scaling-stroke"></line><line x1="-181.56" y1="234.04" x2="-275.27" y2="354.84" stroke="rgba(90,60,30,0.10)" stroke-width="1" stroke-linecap="round" vector-effect="non-scaling-stroke"></line><line x1="-150.35" y1="234.04" x2="-227.96" y2="354.84" stroke="rgba(90,60,30,0.10)" stroke-width="1" stroke-linecap="round" vector-effect="non-scaling-stroke"></line><line x1="-119.15" y1="234.04" x2="-180.65" y2="354.84" stroke="rgba(90,60,30,0.10)" stroke-width="1" stroke-linecap="round" vector-effect="non-scaling-stroke"></line><line x1="-87.94" y1="234.04" x2="-133.33" y2="354.84" stroke="rgba(90,60,30,0.10)" stroke-width="1" stroke-linecap="round" vector-effect="non-scaling-stroke"></line><line x1="-56.74" y1="234.04" x2="-86.02" y2="354.84" stroke="rgba(90,60,30,0.10)" stroke-width="1" stroke-linecap="round" vector-effect="non-scaling-stroke"></line><line x1="-25.53" y1="234.04" x2="-38.71" y2="354.84" stroke="rgba(90,60,30,0.10)" stroke-width="1" stroke-linecap="round" vector-effect="non-scaling-stroke"></line><line x1="5.67" y1="234.04" x2="8.60" y2="354.84" stroke="rgba(90,60,30,0.10)" stroke-width="1" stroke-linecap="round" vector-effect="non-scaling-stroke"></line><line x1="36.88" y1="234.04" x2="55.91" y2="354.84" stroke="rgba(90,60,30,0.10)" stroke-width="1" stroke-linecap="round" vector-effect="non-scaling-stroke"></line><line x1="68.09" y1="234.04" x2="103.23" y2="354.84" stroke="rgba(90,60,30,0.10)" stroke-width="1" stroke-linecap="round" vector-effect="non-scaling-stroke"></line><line x1="99.29" y1="234.04" x2="150.54" y2="354.84" stroke="rgba(90,60,30,0.10)" stroke-width="1" stroke-linecap="round" vector-effect="non-scaling-stroke"></line><line x1="130.50" y1="234.04" x2="197.85" y2="354.84" stroke="rgba(90,60,30,0.10)" stroke-width="1" stroke-linecap="round" vector-effect="non-scaling-stroke"></line><line x1="161.70" y1="234.04" x2="245.16" y2="354.84" stroke="rgba(90,60,30,0.10)" stroke-width="1" stroke-linecap="round" vector-effect="non-scaling-stroke"></line><line x1="192.91" y1="234.04" x2="292.47" y2="354.84" stroke="rgba(90,60,30,0.10)" stroke-width="1" stroke-linecap="round" vector-effect="non-scaling-stroke"></line><line x1="224.11" y1="234.04" x2="339.78" y2="354.84" stroke="rgba(90,60,30,0.10)" stroke-width="1" stroke-linecap="round" vector-effect="non-scaling-stroke"></line><line x1="255.32" y1="234.04" x2="387.10" y2="354.84" stroke="rgba(90,60,30,0.10)" stroke-width="1" stroke-linecap="round" vector-effect="non-scaling-stroke"></line><line x1="286.52" y1="234.04" x2="434.41" y2="354.84" stroke="rgba(90,60,30,0.10)" stroke-width="1" stroke-linecap="round" vector-effect="non-scaling-stroke"></line><line x1="317.73" y1="234.04" x2="481.72" y2="354.84" stroke="rgba(90,60,30,0.10)" stroke-width="1" stroke-linecap="round" vector-effect="non-scaling-stroke"></line><line x1="348.94" y1="234.04" x2="529.03" y2="354.84" stroke="rgba(90,60,30,0.10)" stroke-width="1" stroke-linecap="round" vector-effect="non-scaling-stroke"></line><line x1="380.14" y1="234.04" x2="576.34" y2="354.84" stroke="rgba(90,60,30,0.10)" stroke-width="1" stroke-linecap="round" vector-effect="non-scaling-stroke"></line><line x1="411.35" y1="234.04" x2="623.66" y2="354.84" stroke="rgba(90,60,30,0.10)" stroke-width="1" stroke-linecap="round" vector-effect="non-scaling-stroke"></line><line x1="442.55" y1="234.04" x2="670.97" y2="354.84" stroke="rgba(90,60,30,0.10)" stroke-width="1" stroke-linecap="round" vector-effect="non-scaling-stroke"></line><line x1="473.76" y1="234.04" x2="718.28" y2="354.84" stroke="rgba(90,60,30,0.10)" stroke-width="1" stroke-linecap="round" vector-effect="non-scaling-stroke"></line><line x1="504.96" y1="234.04" x2="765.59" y2="354.84" stroke="rgba(90,60,30,0.10)" stroke-width="1" stroke-linecap="round" vector-effect="non-scaling-stroke"></line><line x1="536.17" y1="234.04" x2="812.90" y2="354.84" stroke="rgba(90,60,30,0.10)" stroke-width="1" stroke-linecap="round" vector-effect="non-scaling-stroke"></line><line x1="567.38" y1="234.04" x2="860.22" y2="354.84" stroke="rgba(90,60,30,0.10)" stroke-width="1" stroke-linecap="round" vector-effect="non-scaling-stroke"></line><polygon points="-212.83,106.41 127.70,106.41 127.70,28.38 -212.83,28.38" fill="#f8f6f2" stroke="rgba(0,0,0,0.05)" stroke-width="1" vector-effect="non-scaling-stroke" stroke-linejoin="round"></polygon><line x1="-212.86" y1="106.43" x2="-212.86" y2="28.38" stroke="rgba(0,0,0,0.06)" stroke-width="1" stroke-linecap="round" vector-effect="non-scaling-stroke"></line><line x1="-191.57" y1="106.43" x2="-191.57" y2="28.38" stroke="rgba(0,0,0,0.06)" stroke-width="1" stroke-linecap="round" vector-effect="non-scaling-stroke"></line><line x1="-170.29" y1="106.43" x2="-170.29" y2="28.38" stroke="rgba(0,0,0,0.06)" stroke-width="1" stroke-linecap="round" vector-effect="non-scaling-stroke"></line><line x1="-149.00" y1="106.43" x2="-149.00" y2="28.38" stroke="rgba(0,0,0,0.06)" stroke-width="1" stroke-linecap="round" vector-effect="non-scaling-stroke"></line><line x1="-127.71" y1="106.43" x2="-127.71" y2="28.38" stroke="rgba(0,0,0,0.06)" stroke-width="1" stroke-linecap="round" vector-effect="non-scaling-stroke"></line><line x1="-106.43" y1="106.43" x2="-106.43" y2="28.38" stroke="rgba(0,0,0,0.06)" stroke-width="1" stroke-linecap="round" vector-effect="non-scaling-stroke"></line><line x1="-85.14" y1="106.43" x2="-85.14" y2="28.38" stroke="rgba(0,0,0,0.06)" stroke-width="1" stroke-linecap="round" vector-effect="non-scaling-stroke"></line><line x1="-63.86" y1="106.43" x2="-63.86" y2="28.38" stroke="rgba(0,0,0,0.06)" stroke-width="1" stroke-linecap="round" vector-effect="non-scaling-stroke"></line><line x1="-42.57" y1="106.43" x2="-42.57" y2="28.38" stroke="rgba(0,0,0,0.06)" stroke-width="1" stroke-linecap="round" vector-effect="non-scaling-stroke"></line><line x1="-21.29" y1="106.43" x2="-21.29" y2="28.38" stroke="rgba(0,0,0,0.06)" stroke-width="1" stroke-linecap="round" vector-effect="non-scaling-stroke"></line><line x1="0.00" y1="106.43" x2="0.00" y2="28.38" stroke="rgba(0,0,0,0.06)" stroke-width="1" stroke-linecap="round" vector-effect="non-scaling-stroke"></line><line x1="21.29" y1="106.43" x2="21.29" y2="28.38" stroke="rgba(0,0,0,0.06)" stroke-width="1" stroke-linecap="round" vector-effect="non-scaling-stroke"></line><line x1="42.57" y1="106.43" x2="42.57" y2="28.38" stroke="rgba(0,0,0,0.06)" stroke-width="1" stroke-linecap="round" vector-effect="non-scaling-stroke"></line><line x1="63.86" y1="106.43" x2="63.86" y2="28.38" stroke="rgba(0,0,0,0.06)" stroke-width="1" stroke-linecap="round" vector-effect="non-scaling-stroke"></line><line x1="85.14" y1="106.43" x2="85.14" y2="28.38" stroke="rgba(0,0,0,0.06)" stroke-width="1" stroke-linecap="round" vector-effect="non-scaling-stroke"></line><line x1="106.43" y1="106.43" x2="106.43" y2="28.38" stroke="rgba(0,0,0,0.06)" stroke-width="1" stroke-linecap="round" vector-effect="non-scaling-stroke"></line><line x1="-212.86" y1="90.82" x2="127.71" y2="90.82" stroke="rgba(0,0,0,0.06)" stroke-width="1" stroke-linecap="round" vector-effect="non-scaling-stroke"></line><line x1="-212.86" y1="75.21" x2="127.71" y2="75.21" stroke="rgba(0,0,0,0.06)" stroke-width="1" stroke-linecap="round" vector-effect="non-scaling-stroke"></line><line x1="-212.86" y1="59.60" x2="127.71" y2="59.60" stroke="rgba(0,0,0,0.06)" stroke-width="1" stroke-linecap="round" vector-effect="non-scaling-stroke"></line><line x1="-212.86" y1="43.99" x2="127.71" y2="43.99" stroke="rgba(0,0,0,0.06)" stroke-width="1" stroke-linecap="round" vector-effect="non-scaling-stroke"></line><polygon points="-212.48,106.38 -285.33,142.86 -285.33,38.10 -212.48,28.37" fill="#f1eee8"></polygon><polygon points="-212.90,76.64 -127.74,76.64 -127.74,28.39 -212.90,28.39" fill="url(#r64gl)"></polygon><line x1="-222.80" y1="30.70" x2="-134.87" y2="30.70" stroke="#fffbe3" stroke-width="3" stroke-linecap="round" vector-effect="non-scaling-stroke"></line><polygon points="-127.74,76.64 -42.58,76.64 -42.58,28.39 -127.74,28.39" fill="url(#r64gl)"></polygon><line x1="-133.38" y1="30.70" x2="-45.45" y2="30.70" stroke="#fffbe3" stroke-width="3" stroke-linecap="round" vector-effect="non-scaling-stroke"></line><polygon points="-42.58,76.64 42.58,76.64 42.58,28.39 -42.58,28.39" fill="url(#r64gl)"></polygon><line x1="-43.96" y1="30.70" x2="43.96" y2="30.70" stroke="#fffbe3" stroke-width="3" stroke-linecap="round" vector-effect="non-scaling-stroke"></line><polygon points="42.58,76.64 127.74,76.64 127.74,28.39 42.58,28.39" fill="url(#r64gl)"></polygon><line x1="45.45" y1="30.70" x2="133.38" y2="30.70" stroke="#fffbe3" stroke-width="3" stroke-linecap="round" vector-effect="non-scaling-stroke"></line><polygon points="-223.21,80.60 -245.16,88.52 -245.16,32.79 -223.21,29.85" fill="url(#r64gl)"></polygon><line x1="-173.26" y1="30.77" x2="-190.01" y2="33.74" stroke="#fffbe3" stroke-width="3" stroke-linecap="round" vector-effect="non-scaling-stroke"></line><polygon points="-212.89,48.25 -127.73,48.25 -127.73,28.38 -212.89,28.38" fill="rgba(0,0,0,0.07)"></polygon><polygon points="-223.28,29.85 -134.93,29.85 -134.93,-77.61 -223.28,-77.61" fill="#3c352e" stroke="rgba(255,255,255,0.28)" stroke-width="1" vector-effect="non-scaling-stroke" stroke-linejoin="round"></polygon><polygon points="-223.28,29.85 -134.93,29.85 -134.93,-77.61 -223.28,-77.61" fill="url(#r64sh)"></polygon><polygon points="-127.73,48.25 -42.58,48.25 -42.58,28.38 -127.73,28.38" fill="rgba(0,0,0,0.07)"></polygon><polygon points="-133.73,29.85 -45.37,29.85 -45.37,-77.61 -133.73,-77.61" fill="#3c352e" stroke="rgba(255,255,255,0.28)" stroke-width="1" vector-effect="non-scaling-stroke" stroke-linejoin="round"></polygon><polygon points="-133.73,29.85 -45.37,29.85 -45.37,-77.61 -133.73,-77.61" fill="url(#r64sh)"></polygon><line x1="-89.56" y1="29.11" x2="-89.56" y2="-76.87" stroke="rgba(255,255,255,0.28)" stroke-width="1" stroke-linecap="round" vector-effect="non-scaling-stroke"></line><polygon points="-42.58,48.25 42.58,48.25 42.58,28.38 -42.58,28.38" fill="rgba(0,0,0,0.07)"></polygon><polygon points="-44.18,29.85 44.18,29.85 44.18,-77.61 -44.18,-77.61" fill="#3c352e" stroke="rgba(255,255,255,0.28)" stroke-width="1" vector-effect="non-scaling-stroke" stroke-linejoin="round"></polygon><polygon points="-44.18,29.85 44.18,29.85 44.18,-77.61 -44.18,-77.61" fill="url(#r64sh)"></polygon><polygon points="42.58,48.25 127.73,48.25 127.73,28.38 42.58,28.38" fill="rgba(0,0,0,0.07)"></polygon><polygon points="45.37,29.85 133.73,29.85 133.73,-77.61 45.37,-77.61" fill="#3c352e" stroke="rgba(255,255,255,0.28)" stroke-width="1" vector-effect="non-scaling-stroke" stroke-linejoin="round"></polygon><polygon points="45.37,29.85 133.73,29.85 133.73,-77.61 45.37,-77.61" fill="url(#r64sh)"></polygon><polygon points="48.06,26.57 131.06,26.57 131.06,-74.34 48.06,-74.34" fill="rgba(176,208,226,0.55)" stroke="rgba(255,255,255,0.7)" stroke-width="1" vector-effect="non-scaling-stroke" stroke-linejoin="round"></polygon><line x1="77.62" y1="22.39" x2="101.50" y2="22.39" stroke="#cbd5e1" stroke-width="2.2" stroke-linecap="round" vector-effect="non-scaling-stroke"></line><polygon points="-171.74,29.87 -188.40,32.77 -188.40,-85.19 -171.74,-77.66" fill="#3c352e" stroke="rgba(255,255,255,0.28)" stroke-width="1" vector-effect="non-scaling-stroke" stroke-linejoin="round"></polygon><polygon points="-171.74,29.87 -188.40,32.77 -188.40,-85.19 -171.74,-77.66" fill="url(#r64sh)"></polygon><polygon points="-171.74,29.87 -188.40,32.77 -188.40,-85.19 -171.74,-77.66" fill="#000000" fill-opacity="0.09"></polygon><line x1="-179.61" y1="30.47" x2="-179.61" y2="-80.47" stroke="rgba(255,255,255,0.28)" stroke-width="1" stroke-linecap="round" vector-effect="non-scaling-stroke"></line><polygon points="-245.90,32.79 -188.52,32.79 -188.52,-85.25 -245.90,-85.25" fill="#463b32" stroke="rgba(0,0,0,0.15)" stroke-width="1" vector-effect="non-scaling-stroke" stroke-linejoin="round"></polygon><polygon points="-230.77,253.85 230.77,253.85 230.77,238.46 -230.77,238.46" fill="#3a3a3f"></polygon><polygon points="-231.94,240.31 -140.16,240.31 -140.16,122.48 -231.94,122.48" fill="#3c352e" stroke="rgba(255,255,255,0.28)" stroke-width="1" vector-effect="non-scaling-stroke" stroke-linejoin="round"></polygon><polygon points="-231.94,240.31 -140.16,240.31 -140.16,122.48 -231.94,122.48" fill="url(#r64sh)"></polygon><polygon points="-232.58,127.92 -139.55,127.92 -139.55,122.49 -232.58,122.49" fill="#1f2328"></polygon><line x1="-186.06" y1="239.55" x2="-186.06" y2="123.27" stroke="rgba(255,255,255,0.28)" stroke-width="1" stroke-linecap="round" vector-effect="non-scaling-stroke"></line><polygon points="-138.91,240.31 -47.13,240.31 -47.13,122.48 -138.91,122.48" fill="#3c352e" stroke="rgba(255,255,255,0.28)" stroke-width="1" vector-effect="non-scaling-stroke" stroke-linejoin="round"></polygon><polygon points="-138.91,240.31 -47.13,240.31 -47.13,122.48 -138.91,122.48" fill="url(#r64sh)"></polygon><polygon points="-138.15,130.24 -47.91,130.24 -47.91,123.73 -138.15,123.73" fill="#262b30"></polygon><polygon points="-99.40,127.00 -100.09,125.79 -101.49,125.79 -102.19,127.00 -101.49,128.21 -100.09,128.21" fill="#9aa3ad"></polygon><polygon points="-91.64,127.00 -92.34,125.79 -93.74,125.79 -94.43,127.00 -93.74,128.21 -92.34,128.21" fill="#9aa3ad"></polygon><polygon points="-83.89,127.00 -84.59,125.79 -85.98,125.79 -86.68,127.00 -85.98,128.21 -84.59,128.21" fill="#9aa3ad"></polygon><polygon points="-45.89,240.31 45.89,240.31 45.89,122.48 -45.89,122.48" fill="#3c352e" stroke="rgba(255,255,255,0.28)" stroke-width="1" vector-effect="non-scaling-stroke" stroke-linejoin="round"></polygon><polygon points="-45.89,240.31 45.89,240.31 45.89,122.48 -45.89,122.48" fill="url(#r64sh)"></polygon><polygon points="-46.52,127.92 46.52,127.92 46.52,122.49 -46.52,122.49" fill="#1f2328"></polygon><line x1="0.00" y1="239.55" x2="0.00" y2="123.27" stroke="rgba(255,255,255,0.28)" stroke-width="1" stroke-linecap="round" vector-effect="non-scaling-stroke"></line><polygon points="47.13,240.31 138.91,240.31 138.91,122.48 47.13,122.48" fill="#3c352e" stroke="rgba(255,255,255,0.28)" stroke-width="1" vector-effect="non-scaling-stroke" stroke-linejoin="round"></polygon><polygon points="47.13,240.31 138.91,240.31 138.91,122.48 47.13,122.48" fill="url(#r64sh)"></polygon><polygon points="46.52,127.92 139.55,127.92 139.55,122.49 46.52,122.49" fill="#1f2328"></polygon><polygon points="46.52,203.37 139.55,203.37 139.55,198.72 46.52,198.72" fill="#1f2328"></polygon><polygon points="46.52,164.10 139.55,164.10 139.55,159.44 46.52,159.44" fill="#1f2328"></polygon><polygon points="140.16,240.31 231.94,240.31 231.94,186.51 140.16,186.51" fill="#3c352e" stroke="rgba(255,255,255,0.28)" stroke-width="1" vector-effect="non-scaling-stroke" stroke-linejoin="round"></polygon><polygon points="140.16,240.31 231.94,240.31 231.94,186.51 140.16,186.51" fill="url(#r64sh)"></polygon><polygon points="139.55,190.71 232.58,190.71 232.58,186.06 139.55,186.06" fill="#1f2328"></polygon><polygon points="140.16,186.05 231.94,186.05 231.94,124.50 140.16,124.50" fill="#3c352e" stroke="rgba(255,255,255,0.28)" stroke-width="1" vector-effect="non-scaling-stroke" stroke-linejoin="round"></polygon><polygon points="140.16,186.05 231.94,186.05 231.94,124.50 140.16,124.50" fill="url(#r64sh)"></polygon><polygon points="139.55,128.69 232.58,128.69 232.58,124.04 139.55,124.04" fill="#1f2328"></polygon><polygon points="140.16,124.03 231.94,124.03 231.94,31.47 140.16,31.47" fill="#20252a" stroke="#0e1114" stroke-width="1" vector-effect="non-scaling-stroke" stroke-linejoin="round"></polygon><polygon points="140.16,124.03 231.94,124.03 231.94,31.47 140.16,31.47" fill="url(#r64sh)"></polygon><polygon points="148.85,117.84 223.28,117.84 223.28,52.72 148.85,52.72" fill="#1e2226" stroke="#3b444c" stroke-width="1" vector-effect="non-scaling-stroke" stroke-linejoin="round"></polygon><polygon points="167.46,44.97 204.68,44.97 204.68,39.54 167.46,39.54" fill="#0a0c0e"></polygon><polygon points="162.35,35.66 161.67,34.02 160.02,33.34 158.38,34.02 157.70,35.66 158.38,37.31 160.02,37.99 161.67,37.31" fill="#9aa3ad"></polygon><polygon points="188.40,35.66 187.72,34.02 186.08,33.34 184.43,34.02 183.75,35.66 184.43,37.31 186.08,37.99 187.72,37.31" fill="#9aa3ad"></polygon><polygon points="214.45,35.66 213.77,34.02 212.13,33.34 210.48,34.02 209.80,35.66 210.48,37.31 212.13,37.99 213.77,37.31" fill="#9aa3ad"></polygon><line x1="147.31" y1="57.37" x2="224.83" y2="57.37" stroke="#c3cad0" stroke-width="2.6" stroke-linecap="round" vector-effect="non-scaling-stroke"></line><polygon points="140.16,31.01 231.94,31.01 231.94,-115.81 140.16,-115.81" fill="#3c352e" stroke="rgba(255,255,255,0.28)" stroke-width="1" vector-effect="non-scaling-stroke" stroke-linejoin="round"></polygon><polygon points="140.16,31.01 231.94,31.01 231.94,-115.81 140.16,-115.81" fill="url(#r64sh)"></polygon><polygon points="139.55,-111.64 232.58,-111.64 232.58,-116.29 139.55,-116.29" fill="#1f2328"></polygon><polygon points="-212.77,106.38 127.66,106.38 139.97,116.64 -233.28,116.64" fill="#bf9569" stroke="rgba(0,0,0,0.12)" stroke-width="1" vector-effect="non-scaling-stroke" stroke-linejoin="round"></polygon><polygon points="-233.28,122.86 139.97,122.86 139.97,116.64 -233.28,116.64" fill="#9d774e"></polygon><line x1="-217.55" y1="108.70" x2="130.53" y2="108.70" stroke="rgba(90,55,20,0.12)" stroke-width="1" stroke-linecap="round" vector-effect="non-scaling-stroke"></line><line x1="-222.55" y1="111.20" x2="133.53" y2="111.20" stroke="rgba(90,55,20,0.12)" stroke-width="1" stroke-linecap="round" vector-effect="non-scaling-stroke"></line><line x1="-227.79" y1="113.82" x2="136.67" y2="113.82" stroke="rgba(90,55,20,0.12)" stroke-width="1" stroke-linecap="round" vector-effect="non-scaling-stroke"></line><polygon points="-209.77,107.61 -135.06,107.61 -143.51,114.35 -222.90,114.35" fill="#c9ced4" stroke="#9aa3ad" stroke-width="1" vector-effect="non-scaling-stroke" stroke-linejoin="round"></polygon><polygon points="-206.35,108.01 -139.97,108.01 -147.42,113.75 -217.33,113.75" fill="#aab2ba"></polygon><line x1="-171.43" y1="107.14" x2="-171.43" y2="72.86" stroke="#8a939c" stroke-width="2.6" stroke-linecap="round" vector-effect="non-scaling-stroke"></line><line x1="-171.43" y1="72.86" x2="-174.42" y2="77.03" stroke="#8a939c" stroke-width="2.6" stroke-linecap="round" vector-effect="non-scaling-stroke"></line><polygon points="-37.30,107.46 37.30,107.46 39.82,114.70 -39.82,114.70" fill="#18181b" stroke="#3f3f46" stroke-width="1" vector-effect="non-scaling-stroke" stroke-linejoin="round"></polygon><polygon points="-8.75,109.04 -9.80,109.52 -12.69,109.91 -16.85,110.13 -21.43,110.13 -25.52,109.91 -28.27,109.52 -29.15,109.04 -28.02,108.56 -25.11,108.17 -21.01,107.96 -16.52,107.96 -12.49,108.17 -9.71,108.56" fill="none" stroke="#52525b" stroke-width="1" vector-effect="non-scaling-stroke" stroke-linejoin="round"></polygon><polygon points="29.15,109.04 28.27,109.52 25.52,109.91 21.43,110.13 16.85,110.13 12.69,109.91 9.80,109.52 8.75,109.04 9.71,108.56 12.49,108.17 16.52,107.96 21.01,107.96 25.11,108.17 28.02,108.56" fill="none" stroke="#52525b" stroke-width="1" vector-effect="non-scaling-stroke" stroke-linejoin="round"></polygon><polygon points="-9.04,112.65 -10.13,113.17 -13.11,113.59 -17.41,113.82 -22.15,113.82 -26.37,113.59 -29.21,113.17 -30.12,112.65 -28.94,112.14 -25.94,111.73 -21.70,111.50 -17.06,111.50 -12.90,111.73 -10.03,112.14" fill="none" stroke="#52525b" stroke-width="1" vector-effect="non-scaling-stroke" stroke-linejoin="round"></polygon><polygon points="30.12,112.65 29.21,113.17 26.37,113.59 22.15,113.82 17.41,113.82 13.11,113.59 10.13,113.17 9.04,112.65 10.03,112.14 12.90,111.73 17.06,111.50 21.70,111.50 25.94,111.73 28.94,112.14" fill="none" stroke="#52525b" stroke-width="1" vector-effect="non-scaling-stroke" stroke-linejoin="round"></polygon><polygon points="-41.98,43.48 41.98,43.48 41.98,29.99 -41.98,29.99" fill="#c3c9cf" stroke="#8f979f" stroke-width="1" vector-effect="non-scaling-stroke" stroke-linejoin="round"></polygon><polygon points="-147.29,255.81 -180.95,314.29 -180.95,295.24 -147.29,240.31" fill="#3a3a3f"></polygon><polygon points="-139.62,240.46 -153.74,264.78 -153.74,134.95 -139.62,122.56" fill="#3c352e" stroke="rgba(255,255,255,0.28)" stroke-width="1" vector-effect="non-scaling-stroke" stroke-linejoin="round"></polygon><polygon points="-139.62,240.46 -153.74,264.78 -153.74,134.95 -139.62,122.56" fill="url(#r64sh)"></polygon><polygon points="-139.62,240.46 -153.74,264.78 -153.74,134.95 -139.62,122.56" fill="#000000" fill-opacity="0.09"></polygon><polygon points="-139.46,127.91 -153.76,141.03 -153.76,135.04 -139.46,122.48" fill="#1f2328"></polygon><polygon points="-139.46,203.36 -153.76,224.22 -153.76,219.09 -139.46,198.71" fill="#1f2328"></polygon><polygon points="-139.46,164.08 -153.76,180.91 -153.76,175.78 -139.46,159.43" fill="#1f2328"></polygon><polygon points="-153.95,265.14 -171.30,295.01 -171.30,180.40 -153.95,162.13" fill="#3c352e" stroke="rgba(255,255,255,0.28)" stroke-width="1" vector-effect="non-scaling-stroke" stroke-linejoin="round"></polygon><polygon points="-153.95,265.14 -171.30,295.01 -171.30,180.40 -153.95,162.13" fill="url(#r64sh)"></polygon><polygon points="-153.95,265.14 -171.30,295.01 -171.30,180.40 -153.95,162.13" fill="#000000" fill-opacity="0.09"></polygon><polygon points="-153.76,166.63 -171.33,185.68 -171.33,179.96 -153.76,161.50" fill="#1f2328"></polygon><polygon points="-153.95,161.61 -171.30,179.82 -171.30,-43.21 -153.95,-38.83" fill="#3c352e" stroke="rgba(255,255,255,0.28)" stroke-width="1" vector-effect="non-scaling-stroke" stroke-linejoin="round"></polygon><polygon points="-153.95,161.61 -171.30,179.82 -171.30,-43.21 -153.95,-38.83" fill="url(#r64sh)"></polygon><polygon points="-153.95,161.61 -171.30,179.82 -171.30,-43.21 -153.95,-38.83" fill="#000000" fill-opacity="0.09"></polygon><polygon points="-153.76,-34.19 -171.33,-38.10 -171.33,-43.81 -153.76,-39.32" fill="#1f2328"></polygon><polygon points="-153.95,-42.76 -171.30,-47.58 -171.30,-142.18 -153.95,-127.78" fill="#3c352e" stroke="rgba(255,255,255,0.28)" stroke-width="1" vector-effect="non-scaling-stroke" stroke-linejoin="round"></polygon><polygon points="-153.95,-42.76 -171.30,-47.58 -171.30,-142.18 -153.95,-127.78" fill="url(#r64sh)"></polygon><polygon points="-153.95,-42.76 -171.30,-47.58 -171.30,-142.18 -153.95,-127.78" fill="#000000" fill-opacity="0.09"></polygon><polygon points="-153.76,-123.08 -171.33,-137.14 -171.33,-142.86 -153.76,-128.21" fill="#1f2328"></polygon><polygon points="-285.71,295.24 -171.43,295.24 -171.43,-142.86 -285.71,-142.86" fill="#463b32" stroke="rgba(0,0,0,0.15)" stroke-width="1" vector-effect="non-scaling-stroke" stroke-linejoin="round"></polygon><polygon points="-232.56,116.28 -256.41,128.21 -150.43,128.21 -136.43,116.28" fill="#bf9569" stroke="rgba(0,0,0,0.12)" stroke-width="1" vector-effect="non-scaling-stroke" stroke-linejoin="round"></polygon><polygon points="-136.43,122.48 -150.43,135.04 -150.43,128.21 -136.43,116.28" fill="#9d774e"></polygon><line x1="-208.53" y1="116.20" x2="-229.91" y2="128.12" stroke="rgba(90,55,20,0.12)" stroke-width="1" stroke-linecap="round" vector-effect="non-scaling-stroke"></line><line x1="-184.50" y1="116.20" x2="-203.42" y2="128.12" stroke="rgba(90,55,20,0.12)" stroke-width="1" stroke-linecap="round" vector-effect="non-scaling-stroke"></line><line x1="-160.47" y1="116.20" x2="-176.92" y2="128.12" stroke="rgba(90,55,20,0.12)" stroke-width="1" stroke-linecap="round" vector-effect="non-scaling-stroke"></line><polygon points="104.20,92.62 121.56,92.62 119.39,108.54 106.37,108.54" fill="#8b6b4f" stroke="rgba(0,0,0,0.25)" stroke-width="1" vector-effect="non-scaling-stroke" stroke-linejoin="round"></polygon><polygon points="112.88,92.62 102.76,74.65 82.21,76.31 92.33,94.28" fill="#4f8a55" stroke="rgba(20,60,30,0.35)" stroke-width="1" vector-effect="non-scaling-stroke" stroke-linejoin="round"></polygon><polygon points="112.90,92.63 110.48,66.97 86.16,58.42 88.58,84.08" fill="#3f7347" stroke="rgba(20,60,30,0.35)" stroke-width="1" vector-effect="non-scaling-stroke" stroke-linejoin="round"></polygon><polygon points="112.91,92.65 122.24,64.96 101.01,44.89 91.68,72.58" fill="#62a066" stroke="rgba(20,60,30,0.35)" stroke-width="1" vector-effect="non-scaling-stroke" stroke-linejoin="round"></polygon><polygon points="112.88,92.62 131.49,72.39 120.92,47.01 102.31,67.24" fill="#2f5f3a" stroke="rgba(20,60,30,0.35)" stroke-width="1" vector-effect="non-scaling-stroke" stroke-linejoin="round"></polygon><polygon points="112.90,92.63 135.77,82.74 136.37,57.83 113.50,67.72" fill="#4f8a55" stroke="rgba(20,60,30,0.35)" stroke-width="1" vector-effect="non-scaling-stroke" stroke-linejoin="round"></polygon><polygon points="112.91,92.65 132.68,92.86 141.15,75.00 121.38,74.79" fill="#3f7347" stroke="rgba(20,60,30,0.35)" stroke-width="1" vector-effect="non-scaling-stroke" stroke-linejoin="round"></polygon><polygon points="112.88,92.62 115.06,73.85 98.92,64.00 96.74,82.78" fill="#62a066" stroke="rgba(20,60,30,0.35)" stroke-width="1" vector-effect="non-scaling-stroke" stroke-linejoin="round"></polygon><polygon points="112.90,92.63 127.96,82.71 125.26,64.87 110.19,74.79" fill="#2f5f3a" stroke="rgba(20,60,30,0.35)" stroke-width="1" vector-effect="non-scaling-stroke" stroke-linejoin="round"></polygon><polygon points="239.41,205.33 282.07,205.33 276.74,244.44 244.74,244.44" fill="#8b6b4f" stroke="rgba(0,0,0,0.25)" stroke-width="1" vector-effect="non-scaling-stroke" stroke-linejoin="round"></polygon><polygon points="260.74,205.33 235.89,161.19 185.40,165.27 210.25,209.41" fill="#4f8a55" stroke="rgba(20,60,30,0.35)" stroke-width="1" vector-effect="non-scaling-stroke" stroke-linejoin="round"></polygon><polygon points="260.78,205.36 254.84,142.31 195.10,121.30 201.04,184.35" fill="#3f7347" stroke="rgba(20,60,30,0.35)" stroke-width="1" vector-effect="non-scaling-stroke" stroke-linejoin="round"></polygon><polygon points="260.82,205.39 283.74,137.37 231.56,88.06 208.64,156.09" fill="#62a066" stroke="rgba(20,60,30,0.35)" stroke-width="1" vector-effect="non-scaling-stroke" stroke-linejoin="round"></polygon><polygon points="260.74,205.33 306.48,155.63 280.50,93.28 234.76,142.99" fill="#2f5f3a" stroke="rgba(20,60,30,0.35)" stroke-width="1" vector-effect="non-scaling-stroke" stroke-linejoin="round"></polygon><polygon points="260.78,205.36 316.97,181.07 318.45,119.87 262.25,144.16" fill="#4f8a55" stroke="rgba(20,60,30,0.35)" stroke-width="1" vector-effect="non-scaling-stroke" stroke-linejoin="round"></polygon><polygon points="260.82,205.39 309.38,205.92 330.19,162.05 281.63,161.52" fill="#3f7347" stroke="rgba(20,60,30,0.35)" stroke-width="1" vector-effect="non-scaling-stroke" stroke-linejoin="round"></polygon><polygon points="260.74,205.33 266.09,159.21 226.45,135.03 221.10,181.15" fill="#62a066" stroke="rgba(20,60,30,0.35)" stroke-width="1" vector-effect="non-scaling-stroke" stroke-linejoin="round"></polygon><polygon points="260.78,205.36 297.80,180.97 291.15,137.14 254.14,161.53" fill="#2f5f3a" stroke="rgba(20,60,30,0.35)" stroke-width="1" vector-effect="non-scaling-stroke" stroke-linejoin="round"></polygon><line x1="-157.98" y1="-118.48" x2="-157.98" y2="-67.93" stroke="#2b2f33" stroke-width="1.4" stroke-linecap="round" vector-effect="non-scaling-stroke"></line><polygon points="-165.09,-67.93 -150.87,-67.93 -150.87,-11.06 -165.09,-11.06" fill="#17191c" stroke="#000000" stroke-width="1" vector-effect="non-scaling-stroke" stroke-linejoin="round"></polygon><polygon points="-165.09,-15.80 -150.87,-15.80 -150.87,-11.06 -165.09,-11.06" fill="#d6a84f"></polygon><polygon points="-162.24,-11.06 -153.71,-11.06 -153.71,-9.79 -162.24,-9.79" fill="#fff2c4"></polygon><polygon points="-110.58,-6.32 -113.44,-9.56 -121.67,-12.41 -134.28,-14.53 -149.75,-15.65 -166.21,-15.65 -181.67,-14.53 -194.28,-12.41 -202.51,-9.56 -205.37,-6.32 -202.51,-3.08 -194.28,-0.23 -181.67,1.89 -166.21,3.02 -149.75,3.02 -134.28,1.89 -121.67,-0.23 -113.44,-3.08" fill="url(#r64lg)"></polygon><line x1="0.00" y1="-118.48" x2="0.00" y2="-67.93" stroke="#2b2f33" stroke-width="1.4" stroke-linecap="round" vector-effect="non-scaling-stroke"></line><polygon points="-7.11,-67.93 7.11,-67.93 7.11,-11.06 -7.11,-11.06" fill="#17191c" stroke="#000000" stroke-width="1" vector-effect="non-scaling-stroke" stroke-linejoin="round"></polygon><polygon points="-7.11,-15.80 7.11,-15.80 7.11,-11.06 -7.11,-11.06" fill="#d6a84f"></polygon><polygon points="-4.27,-11.06 4.27,-11.06 4.27,-9.79 -4.27,-9.79" fill="#fff2c4"></polygon><polygon points="47.39,-6.32 44.54,-9.56 36.31,-12.41 23.70,-14.53 8.23,-15.65 -8.23,-15.65 -23.70,-14.53 -36.31,-12.41 -44.54,-9.56 -47.39,-6.32 -44.54,-3.08 -36.31,-0.23 -23.70,1.89 -8.23,3.02 8.23,3.02 23.70,1.89 36.31,-0.23 44.54,-3.08" fill="url(#r64lg)"></polygon><line x1="157.98" y1="-118.48" x2="157.98" y2="-67.93" stroke="#2b2f33" stroke-width="1.4" stroke-linecap="round" vector-effect="non-scaling-stroke"></line><polygon points="150.87,-67.93 165.09,-67.93 165.09,-11.06 150.87,-11.06" fill="#17191c" stroke="#000000" stroke-width="1" vector-effect="non-scaling-stroke" stroke-linejoin="round"></polygon><polygon points="150.87,-15.80 165.09,-15.80 165.09,-11.06 150.87,-11.06" fill="#d6a84f"></polygon><polygon points="153.71,-11.06 162.24,-11.06 162.24,-9.79 153.71,-9.79" fill="#fff2c4"></polygon><polygon points="205.37,-6.32 202.51,-9.56 194.28,-12.41 181.67,-14.53 166.21,-15.65 149.75,-15.65 134.28,-14.53 121.67,-12.41 113.44,-9.56 110.58,-6.32 113.44,-3.08 121.67,-0.23 134.28,1.89 149.75,3.02 166.21,3.02 181.67,1.89 194.28,-0.23 202.51,-3.08" fill="url(#r64lg)"></polygon></svg>