<?xml version="1.0" encoding="UTF-8"?>
<svg xmlns="http://www.w3.org/2000/svg" viewBox="-280.5 -163.1 595.6 492.8" preserveAspectRatio="xMidYMid meet" style="overflow: hidden;"><defs><linearGradient id="r67sh" x1="0" y1="0" x2="0" y2="1"><stop offset="0" stop-color="#ffffff" stop-opacity="0.16"></stop><stop offset="0.55" stop-color="#ffffff" stop-opacity="0"></stop><stop offset="1" stop-color="#000000" stop-opacity="0.10"></stop></linearGradient><linearGradient id="r67gl" x1="0" y1="0" x2="0" y2="1"><stop offset="0" stop-color="#fff1cf" stop-opacity="0.95"></stop><stop offset="0.5" stop-color="#fff1cf" stop-opacity="0.45"></stop><stop offset="1" stop-color="#fff1cf" stop-opacity="0"></stop></linearGradient><radialGradient id="r67lg"><stop offset="0" stop-color="#ffe9a8" stop-opacity="0.55"></stop><stop offset="1" stop-color="#ffe9a8" stop-opacity="0"></stop></radialGradient></defs><polygon points="-180.72,198.80 493.98,198.80 493.98,-90.36 -180.72,-90.36" fill="#efe8de"></polygon><polygon points="-180.72,198.80 -322.58,354.84 -322.58,-161.29 -180.72,-90.36" fill="#e2d8ca"></polygon><polygon points="-180.72,198.80 493.98,198.80 881.72,354.84 -322.58,354.84" fill="#ccb08d"></polygon><line x1="-180.72" y1="198.80" x2="-322.58" y2="354.84" stroke="rgba(90,60,30,0.10)" stroke-width="1" stroke-linecap="round" vector-effect="non-scaling-stroke"></line><line x1="-154.22" y1="198.80" x2="-275.27" y2="354.84" stroke="rgba(90,60,30,0.10)" stroke-width="1" stroke-linecap="round" vector-effect="non-scaling-stroke"></line><line x1="-127.71" y1="198.80" x2="-227.96" y2="354.84" stroke="rgba(90,60,30,0.10)" stroke-width="1" stroke-linecap="round" vector-effect="non-scaling-stroke"></line><line x1="-101.20" y1="198.80" x2="-180.65" y2="354.84" stroke="rgba(90,60,30,0.10)" stroke-width="1" stroke-linecap="round" vector-effect="non-scaling-stroke"></line><line x1="-74.70" y1="198.80" x2="-133.33" y2="354.84" stroke="rgba(90,60,30,0.10)" stroke-width="1" stroke-linecap="round" vector-effect="non-scaling-stroke"></line><line x1="-48.19" y1="198.80" x2="-86.02" y2="354.84" stroke="rgba(90,60,30,0.10)" stroke-width="1" stroke-linecap="round" vector-effect="non-scaling-stroke"></line><line x1="-21.69" y1="198.80" x2="-38.71" y2="354.84" stroke="rgba(90,60,30,0.10)" stroke-width="1" stroke-linecap="round" vector-effect="non-scaling-stroke"></line><line x1="4.82" y1="198.80" x2="8.60" y2="354.84" stroke="rgba(90,60,30,0.10)" stroke-width="1" stroke-linecap="round" vector-effect="non-scaling-stroke"></line><line x1="31.33" y1="198.80" x2="55.91" y2="354.84" stroke="rgba(90,60,30,0.10)" stroke-width="1" stroke-linecap="round" vector-effect="non-scaling-stroke"></line><line x1="57.83" y1="198.80" x2="103.23" y2="354.84" stroke="rgba(90,60,30,0.10)" stroke-width="1" stroke-linecap="round" vector-effect="non-scaling-stroke"></line><line x1="84.34" y1="198.80" x2="150.54" y2="354.84" stroke="rgba(90,60,30,0.10)" stroke-width="1" stroke-linecap="round" vector-effect="non-scaling-stroke"></line><line x1="110.84" y1="198.80" x2="197.85" y2="354.84" stroke="rgba(90,60,30,0.10)" stroke-width="1" stroke-linecap="round" vector-effect="non-scaling-stroke"></line><line x1="137.35" y1="198.80" x2="245.16" y2="354.84" stroke="rgba(90,60,30,0.10)" stroke-width="1" stroke-linecap="round" vector-effect="non-scaling-stroke"></line><line x1="163.86" y1="198.80" x2="292.47" y2="354.84" stroke="rgba(90,60,30,0.10)" stroke-width="1" stroke-linecap="round" vector-effect="non-scaling-stroke"></line><line x1="190.36" y1="198.80" x2="339.78" y2="354.84" stroke="rgba(90,60,30,0.10)" stroke-width="1" stroke-linecap="round" vector-effect="non-scaling-stroke"></line><line x1="216.87" y1="198.80" x2="387.10" y2="354.84" stroke="rgba(90,60,30,0.10)" stroke-width="1" stroke-linecap="round" vector-effect="non-scaling-stroke"></line><line x1="243.37" y1="198.80" x2="434.41" y2="354.84" stroke="rgba(90,60,30,0.10)" stroke-width="1" stroke-linecap="round" vector-effect="non-scaling-stroke"></line><line x1="269.88" y1="198.80" x2="481.72" y2="354.84" stroke="rgba(90,60,30,0.10)" stroke-width="1" stroke-linecap="round" vector-effect="non-scaling-stroke"></line><line x1="296.39" y1="198.80" x2="529.03" y2="354.84" stroke="rgba(90,60,30,0.10)" stroke-width="1" stroke-linecap="round" vector-effect="non-scaling-stroke"></line><line x1="322.89" y1="198.80" x2="576.34" y2="354.84" stroke="rgba(90,60,30,0.10)" stroke-width="1" stroke-linecap="round" vector-effect="non-scaling-stroke"></line><line x1="349.40" y1="198.80" x2="623.66" y2="354.84" stroke="rgba(90,60,30,0.10)" stroke-width="1" stroke-linecap="round" vector-effect="non-scaling-stroke"></line><line x1="375.90" y1="198.80" x2="670.97" y2="354.84" stroke="rgba(90,60,30,0.10)" stroke-width="1" stroke-linecap="round" vector-effect="non-scaling-stroke"></line><line x1="402.41" y1="198.80" x2="718.28" y2="354.84" stroke="rgba(90,60,30,0.10)" stroke-width="1" stroke-linecap="round" vector-effect="non-scaling-stroke"></line><line x1="428.92" y1="198.80" x2="765.59" y2="354.84" stroke="rgba(90,60,30,0.10)" stroke-width="1" stroke-linecap="round" vector-effect="non-scaling-stroke"></line><line x1="455.42" y1="198.80" x2="812.90" y2="354.84" stroke="rgba(90,60,30,0.10)" stroke-width="1" stroke-linecap="round" vector-effect="non-scaling-stroke"></line><line x1="481.93" y1="198.80" x2="860.22" y2="354.84" stroke="rgba(90,60,30,0.10)" stroke-width="1" stroke-linecap="round" vector-effect="non-scaling-stroke"></line><polygon points="-180.77,90.38 180.77,90.38 180.77,24.10 -180.77,24.10" fill="#f8f6f2" stroke="rgba(0,0,0,0.05)" stroke-width="1" vector-effect="non-scaling-stroke" stroke-linejoin="round"></polygon><line x1="-180.79" y1="90.39" x2="-180.79" y2="24.11" stroke="rgba(0,0,0,0.06)" stroke-width="1" stroke-linecap="round" vector-effect="non-scaling-stroke"></line><line x1="-162.71" y1="90.39" x2="-162.71" y2="24.11" stroke="rgba(0,0,0,0.06)" stroke-width="1" stroke-linecap="round" vector-effect="non-scaling-stroke"></line><line x1="-144.63" y1="90.39" x2="-144.63" y2="24.11" stroke="rgba(0,0,0,0.06)" stroke-width="1" stroke-linecap="round" vector-effect="non-scaling-stroke"></line><line x1="-126.55" y1="90.39" x2="-126.55" y2="24.11" stroke="rgba(0,0,0,0.06)" stroke-width="1" stroke-linecap="round" vector-effect="non-scaling-stroke"></line><line x1="-108.47" y1="90.39" x2="-108.47" y2="24.11" stroke="rgba(0,0,0,0.06)" stroke-width="1" stroke-linecap="round" vector-effect="non-scaling-stroke"></line><line x1="-90.39" y1="90.39" x2="-90.39" y2="24.11" stroke="rgba(0,0,0,0.06)" stroke-width="1" stroke-linecap="round" vector-effect="non-scaling-stroke"></line><line x1="-72.32" y1="90.39" x2="-72.32" y2="24.11" stroke="rgba(0,0,0,0.06)" stroke-width="1" stroke-linecap="round" vector-effect="non-scaling-stroke"></line><line x1="-54.24" y1="90.39" x2="-54.24" y2="24.11" stroke="rgba(0,0,0,0.06)" stroke-width="1" stroke-linecap="round" vector-effect="non-scaling-stroke"></line><line x1="-36.16" y1="90.39" x2="-36.16" y2="24.11" stroke="rgba(0,0,0,0.06)" stroke-width="1" stroke-linecap="round" vector-effect="non-scaling-stroke"></line><line x1="-18.08" y1="90.39" x2="-18.08" y2="24.11" stroke="rgba(0,0,0,0.06)" stroke-width="1" stroke-linecap="round" vector-effect="non-scaling-stroke"></line><line x1="0.00" y1="90.39" x2="0.00" y2="24.11" stroke="rgba(0,0,0,0.06)" stroke-width="1" stroke-linecap="round" vector-effect="non-scaling-stroke"></line><line x1="18.08" y1="90.39" x2="18.08" y2="24.11" stroke="rgba(0,0,0,0.06)" stroke-width="1" stroke-linecap="round" vector-effect="non-scaling-stroke"></line><line x1="36.16" y1="90.39" x2="36.16" y2="24.11" stroke="rgba(0,0,0,0.06)" stroke-width="1" stroke-linecap="round" vector-effect="non-scaling-stroke"></line><line x1="54.24" y1="90.39" x2="54.24" y2="24.11" stroke="rgba(0,0,0,0.06)" stroke-width="1" stroke-linecap="round" vector-effect="non-scaling-stroke"></line><line x1="72.32" y1="90.39" x2="72.32" y2="24.11" stroke="rgba(0,0,0,0.06)" stroke-width="1" stroke-linecap="round" vector-effect="non-scaling-stroke"></line><line x1="90.39" y1="90.39" x2="90.39" y2="24.11" stroke="rgba(0,0,0,0.06)" stroke-width="1" stroke-linecap="round" vector-effect="non-scaling-stroke"></line><line x1="108.47" y1="90.39" x2="108.47" y2="24.11" stroke="rgba(0,0,0,0.06)" stroke-width="1" stroke-linecap="round" vector-effect="non-scaling-stroke"></line><line x1="126.55" y1="90.39" x2="126.55" y2="24.11" stroke="rgba(0,0,0,0.06)" stroke-width="1" stroke-linecap="round" vector-effect="non-scaling-stroke"></line><line x1="144.63" y1="90.39" x2="144.63" y2="24.11" stroke="rgba(0,0,0,0.06)" stroke-width="1" stroke-linecap="round" vector-effect="non-scaling-stroke"></line><line x1="162.71" y1="90.39" x2="162.71" y2="24.11" stroke="rgba(0,0,0,0.06)" stroke-width="1" stroke-linecap="round" vector-effect="non-scaling-stroke"></line><line x1="-180.79" y1="77.14" x2="180.79" y2="77.14" stroke="rgba(0,0,0,0.06)" stroke-width="1" stroke-linecap="round" vector-effect="non-scaling-stroke"></line><line x1="-180.79" y1="63.88" x2="180.79" y2="63.88" stroke="rgba(0,0,0,0.06)" stroke-width="1" stroke-linecap="round" vector-effect="non-scaling-stroke"></line><line x1="-180.79" y1="50.62" x2="180.79" y2="50.62" stroke="rgba(0,0,0,0.06)" stroke-width="1" stroke-linecap="round" vector-effect="non-scaling-stroke"></line><line x1="-180.79" y1="37.36" x2="180.79" y2="37.36" stroke="rgba(0,0,0,0.06)" stroke-width="1" stroke-linecap="round" vector-effect="non-scaling-stroke"></line><polygon points="-180.48,90.36 -230.46,115.38 -230.46,30.77 -180.48,24.10" fill="#f1eee8"></polygon><polygon points="-180.82,65.10 -108.49,65.10 -108.49,24.11 -180.82,24.11" fill="url(#r67gl)"></polygon><line x1="-187.81" y1="25.88" x2="-113.69" y2="25.88" stroke="#fffbe3" stroke-width="3" stroke-linecap="round" vector-effect="non-scaling-stroke"></line><polygon points="-108.49,65.10 -36.16,65.10 -36.16,24.11 -108.49,24.11" fill="url(#r67gl)"></polygon><line x1="-112.44" y1="25.88" x2="-38.32" y2="25.88" stroke="#fffbe3" stroke-width="3" stroke-linecap="round" vector-effect="non-scaling-stroke"></line><polygon points="-36.16,65.10 36.16,65.10 36.16,24.11 -36.16,24.11" fill="url(#r67gl)"></polygon><line x1="-37.06" y1="25.88" x2="37.06" y2="25.88" stroke="#fffbe3" stroke-width="3" stroke-linecap="round" vector-effect="non-scaling-stroke"></line><polygon points="36.16,65.10 108.49,65.10 108.49,24.11 36.16,24.11" fill="url(#r67gl)"></polygon><line x1="38.32" y1="25.88" x2="112.44" y2="25.88" stroke="#fffbe3" stroke-width="3" stroke-linecap="round" vector-effect="non-scaling-stroke"></line><polygon points="-221.56,80.00 -243.17,87.80 -243.17,32.52 -221.56,29.63" fill="url(#r67gl)"></polygon><line x1="-171.98" y1="30.54" x2="-188.46" y2="33.47" stroke="#fffbe3" stroke-width="3" stroke-linecap="round" vector-effect="non-scaling-stroke"></line><polygon points="-193.80,213.05 193.80,213.05 198.94,218.70 -198.94,218.70" fill="url(#r67gl)"></polygon><polygon points="-122.08,214.16 -144.62,253.69 -113.85,253.69 -96.10,214.16" fill="url(#r67gl)"></polygon><polygon points="-180.81,40.98 -108.49,40.98 -108.49,24.11 -180.81,24.11" fill="rgba(0,0,0,0.07)"></polygon><polygon points="-188.18,25.16 -113.71,25.16 -113.71,-65.41 -188.18,-65.41" fill="#15171a" stroke="rgba(255,255,255,0.28)" stroke-width="1" vector-effect="non-scaling-stroke" stroke-linejoin="round"></polygon><polygon points="-188.18,25.16 -113.71,25.16 -113.71,-65.41 -188.18,-65.41" fill="url(#r67sh)"></polygon><line x1="-150.95" y1="24.53" x2="-150.95" y2="-64.78" stroke="rgba(255,255,255,0.28)" stroke-width="1" stroke-linecap="round" vector-effect="non-scaling-stroke"></line><polygon points="-108.49,40.98 -36.16,40.98 -36.16,24.11 -108.49,24.11" fill="rgba(0,0,0,0.07)"></polygon><polygon points="-112.70,25.16 -38.24,25.16 -38.24,-65.41 -112.70,-65.41" fill="#15171a" stroke="rgba(255,255,255,0.28)" stroke-width="1" vector-effect="non-scaling-stroke" stroke-linejoin="round"></polygon><polygon points="-112.70,25.16 -38.24,25.16 -38.24,-65.41 -112.70,-65.41" fill="url(#r67sh)"></polygon><polygon points="-36.16,40.98 36.16,40.98 36.16,24.11 -36.16,24.11" fill="rgba(0,0,0,0.07)"></polygon><polygon points="-37.23,25.16 37.23,25.16 37.23,-65.41 -37.23,-65.41" fill="#15171a" stroke="rgba(255,255,255,0.28)" stroke-width="1" vector-effect="non-scaling-stroke" stroke-linejoin="round"></polygon><polygon points="-37.23,25.16 37.23,25.16 37.23,-65.41 -37.23,-65.41" fill="url(#r67sh)"></polygon><polygon points="36.16,40.98 108.49,40.98 108.49,24.11 36.16,24.11" fill="rgba(0,0,0,0.07)"></polygon><polygon points="38.24,25.16 112.70,25.16 112.70,-65.41 38.24,-65.41" fill="#15171a" stroke="rgba(255,255,255,0.28)" stroke-width="1" vector-effect="non-scaling-stroke" stroke-linejoin="round"></polygon><polygon points="38.24,25.16 112.70,25.16 112.70,-65.41 38.24,-65.41" fill="url(#r67sh)"></polygon><polygon points="40.51,22.39 110.45,22.39 110.45,-62.65 40.51,-62.65" fill="rgba(176,208,226,0.55)" stroke="rgba(255,255,255,0.7)" stroke-width="1" vector-effect="non-scaling-stroke" stroke-linejoin="round"></polygon><line x1="65.42" y1="18.87" x2="85.54" y2="18.87" stroke="#cbd5e1" stroke-width="2.2" stroke-linecap="round" vector-effect="non-scaling-stroke"></line><polygon points="-170.47,29.65 -186.87,32.50 -186.87,-84.50 -170.47,-77.08" fill="#15171a" stroke="rgba(255,255,255,0.28)" stroke-width="1" vector-effect="non-scaling-stroke" stroke-linejoin="round"></polygon><polygon points="-170.47,29.65 -186.87,32.50 -186.87,-84.50 -170.47,-77.08" fill="url(#r67sh)"></polygon><polygon points="-170.47,29.65 -186.87,32.50 -186.87,-84.50 -170.47,-77.08" fill="#000000" fill-opacity="0.09"></polygon><line x1="-178.22" y1="30.23" x2="-178.22" y2="-79.84" stroke="rgba(255,255,255,0.28)" stroke-width="1" stroke-linecap="round" vector-effect="non-scaling-stroke"></line><polygon points="-243.90,32.52 -186.99,32.52 -186.99,-84.55 -243.90,-84.55" fill="#c6c7c2" stroke="rgba(0,0,0,0.15)" stroke-width="1" vector-effect="non-scaling-stroke" stroke-linejoin="round"></polygon><polygon points="-193.55,212.90 193.55,212.90 193.55,200.00 -193.55,200.00" fill="#3a3a3f"></polygon><polygon points="-194.29,201.30 -117.40,201.30 -117.40,102.60 -194.29,102.60" fill="#15171a" stroke="rgba(255,255,255,0.28)" stroke-width="1" vector-effect="non-scaling-stroke" stroke-linejoin="round"></polygon><polygon points="-194.29,201.30 -117.40,201.30 -117.40,102.60 -194.29,102.60" fill="url(#r67sh)"></polygon><polygon points="-194.82,107.15 -116.89,107.15 -116.89,102.60 -194.82,102.60" fill="#1f2328"></polygon><polygon points="-194.82,170.36 -116.89,170.36 -116.89,166.46 -194.82,166.46" fill="#1f2328"></polygon><polygon points="-194.82,137.45 -116.89,137.45 -116.89,133.56 -194.82,133.56" fill="#1f2328"></polygon><polygon points="-116.36,201.30 -39.48,201.30 -39.48,102.60 -116.36,102.60" fill="#15171a" stroke="rgba(255,255,255,0.28)" stroke-width="1" vector-effect="non-scaling-stroke" stroke-linejoin="round"></polygon><polygon points="-116.36,201.30 -39.48,201.30 -39.48,102.60 -116.36,102.60" fill="url(#r67sh)"></polygon><polygon points="-116.89,107.15 -38.96,107.15 -38.96,102.60 -116.89,102.60" fill="#1f2328"></polygon><line x1="-77.93" y1="200.66" x2="-77.93" y2="103.25" stroke="rgba(255,255,255,0.28)" stroke-width="1" stroke-linecap="round" vector-effect="non-scaling-stroke"></line><polygon points="-38.44,201.30 38.44,201.30 38.44,102.60 -38.44,102.60" fill="#15171a" stroke="rgba(255,255,255,0.28)" stroke-width="1" vector-effect="non-scaling-stroke" stroke-linejoin="round"></polygon><polygon points="-38.44,201.30 38.44,201.30 38.44,102.60 -38.44,102.60" fill="url(#r67sh)"></polygon><polygon points="-37.80,109.10 37.80,109.10 37.80,103.64 -37.80,103.64" fill="#262b30"></polygon><polygon points="-5.33,106.38 -5.91,105.37 -7.08,105.37 -7.66,106.38 -7.08,107.39 -5.91,107.39" fill="#9aa3ad"></polygon><polygon points="1.17,106.38 0.58,105.37 -0.58,105.37 -1.17,106.38 -0.58,107.39 0.58,107.39" fill="#9aa3ad"></polygon><polygon points="7.66,106.38 7.08,105.37 5.91,105.37 5.33,106.38 5.91,107.39 7.08,107.39" fill="#9aa3ad"></polygon><polygon points="39.48,201.30 116.36,201.30 116.36,102.60 39.48,102.60" fill="#15171a" stroke="rgba(255,255,255,0.28)" stroke-width="1" vector-effect="non-scaling-stroke" stroke-linejoin="round"></polygon><polygon points="39.48,201.30 116.36,201.30 116.36,102.60 39.48,102.60" fill="url(#r67sh)"></polygon><polygon points="38.96,107.15 116.89,107.15 116.89,102.60 38.96,102.60" fill="#1f2328"></polygon><line x1="77.93" y1="200.66" x2="77.93" y2="103.25" stroke="rgba(255,255,255,0.28)" stroke-width="1" stroke-linecap="round" vector-effect="non-scaling-stroke"></line><polygon points="117.40,201.30 194.29,201.30 194.29,102.60 117.40,102.60" fill="#15171a" stroke="rgba(255,255,255,0.28)" stroke-width="1" vector-effect="non-scaling-stroke" stroke-linejoin="round"></polygon><polygon points="117.40,201.30 194.29,201.30 194.29,102.60 117.40,102.60" fill="url(#r67sh)"></polygon><polygon points="116.89,107.15 194.82,107.15 194.82,102.60 116.89,102.60" fill="#1f2328"></polygon><polygon points="116.89,170.36 194.82,170.36 194.82,166.46 116.89,166.46" fill="#1f2328"></polygon><polygon points="116.89,137.45 194.82,137.45 194.82,133.56 116.89,133.56" fill="#1f2328"></polygon><polygon points="-180.72,90.36 180.72,90.36 195.31,97.66 -195.31,97.66" fill="#f6f5f2" stroke="rgba(0,0,0,0.12)" stroke-width="1" vector-effect="non-scaling-stroke" stroke-linejoin="round"></polygon><polygon points="-195.31,102.86 195.31,102.86 195.31,97.66 -195.31,97.66" fill="#d0cfcd"></polygon><polygon points="-104.75,91.23 -41.41,91.23 -43.59,96.03 -110.26,96.03" fill="#c9ced4" stroke="#9aa3ad" stroke-width="1" vector-effect="non-scaling-stroke" stroke-linejoin="round"></polygon><polygon points="-101.47,91.50 -45.23,91.50 -47.25,95.59 -106.00,95.59" fill="#aab2ba"></polygon><line x1="-72.73" y1="90.91" x2="-72.73" y2="61.82" stroke="#8a939c" stroke-width="2.6" stroke-linecap="round" vector-effect="non-scaling-stroke"></line><line x1="-72.73" y1="61.82" x2="-73.80" y2="65.19" stroke="#8a939c" stroke-width="2.6" stroke-linecap="round" vector-effect="non-scaling-stroke"></line><polygon points="41.36,91.12 104.62,91.12 110.54,96.27 43.70,96.27" fill="#18181b" stroke="#3f3f46" stroke-width="1" vector-effect="non-scaling-stroke" stroke-linejoin="round"></polygon><polygon points="66.58,92.23 65.98,92.58 63.76,92.86 60.38,93.01 56.51,93.01 52.93,92.86 50.37,92.58 49.32,92.23 49.99,91.89 52.22,91.61 55.56,91.46 59.37,91.46 62.91,91.61 65.48,91.89" fill="none" stroke="#52525b" stroke-width="1" vector-effect="non-scaling-stroke" stroke-linejoin="round"></polygon><polygon points="98.64,92.23 98.16,92.58 96.04,92.86 92.71,93.01 88.84,93.01 85.21,92.86 82.54,92.58 81.38,92.23 81.93,91.89 84.06,91.61 87.36,91.46 91.17,91.46 94.75,91.61 97.42,91.89" fill="none" stroke="#52525b" stroke-width="1" vector-effect="non-scaling-stroke" stroke-linejoin="round"></polygon><polygon points="68.44,94.80 67.82,95.17 65.56,95.47 62.08,95.63 58.10,95.63 54.41,95.47 51.77,95.17 50.70,94.80 51.38,94.44 53.67,94.15 57.10,93.99 61.02,93.99 64.65,94.15 67.30,94.44" fill="none" stroke="#52525b" stroke-width="1" vector-effect="non-scaling-stroke" stroke-linejoin="round"></polygon><polygon points="101.39,94.80 100.90,95.17 98.74,95.47 95.32,95.63 91.34,95.63 87.60,95.47 84.86,95.17 83.65,94.80 84.20,94.44 86.39,94.15 89.77,93.99 93.69,93.99 97.38,94.15 100.13,94.44" fill="none" stroke="#52525b" stroke-width="1" vector-effect="non-scaling-stroke" stroke-linejoin="round"></polygon><polygon points="40.40,36.62 111.11,36.62 111.11,25.25 40.40,25.25" fill="#c3c9cf" stroke="#8f979f" stroke-width="1" vector-effect="non-scaling-stroke" stroke-linejoin="round"></polygon><polygon points="-123.38,214.29 -146.15,253.85 -146.15,238.46 -123.38,201.30" fill="#3a3a3f"></polygon><polygon points="-116.94,201.40 -126.69,218.19 -126.69,169.34 -116.94,156.31" fill="#15171a" stroke="rgba(255,255,255,0.28)" stroke-width="1" vector-effect="non-scaling-stroke" stroke-linejoin="round"></polygon><polygon points="-116.94,201.40 -126.69,218.19 -126.69,169.34 -116.94,156.31" fill="url(#r67sh)"></polygon><polygon points="-116.94,201.40 -126.69,218.19 -126.69,169.34 -116.94,156.31" fill="#000000" fill-opacity="0.09"></polygon><polygon points="-116.82,159.74 -126.69,173.24 -126.69,169.01 -116.82,155.84" fill="#1f2328"></polygon><polygon points="-116.94,155.93 -126.69,168.92 -126.69,120.07 -116.94,110.84" fill="#15171a" stroke="rgba(255,255,255,0.28)" stroke-width="1" vector-effect="non-scaling-stroke" stroke-linejoin="round"></polygon><polygon points="-116.94,155.93 -126.69,168.92 -126.69,120.07 -116.94,110.84" fill="url(#r67sh)"></polygon><polygon points="-116.94,155.93 -126.69,168.92 -126.69,120.07 -116.94,110.84" fill="#000000" fill-opacity="0.09"></polygon><polygon points="-116.82,114.29 -126.69,123.94 -126.69,119.72 -116.82,110.39" fill="#1f2328"></polygon><polygon points="-116.94,110.45 -126.69,119.65 -126.69,35.61 -116.94,32.87" fill="#20252a" stroke="#0e1114" stroke-width="1" vector-effect="non-scaling-stroke" stroke-linejoin="round"></polygon><polygon points="-116.94,110.45 -126.69,119.65 -126.69,35.61 -116.94,32.87" fill="url(#r67sh)"></polygon><polygon points="-116.94,110.45 -126.69,119.65 -126.69,35.61 -116.94,32.87" fill="#000000" fill-opacity="0.09"></polygon><polygon points="-117.72,106.02 -125.61,113.13 -125.61,54.47 -117.72,51.05" fill="#1e2226" stroke="#3b444c" stroke-width="1" vector-effect="non-scaling-stroke" stroke-linejoin="round"></polygon><polygon points="-119.57,45.21 -123.52,46.70 -123.52,41.90 -119.57,40.56" fill="#0a0c0e"></polygon><polygon points="-119.03,37.07 -118.96,35.65 -118.79,35.02 -118.62,35.55 -118.55,36.92 -118.62,38.35 -118.79,38.98 -118.96,38.45" fill="#9aa3ad"></polygon><polygon points="-121.73,37.91 -121.66,36.46 -121.49,35.81 -121.31,36.35 -121.24,37.76 -121.31,39.21 -121.49,39.86 -121.66,39.33" fill="#9aa3ad"></polygon><polygon points="-124.57,38.80 -124.49,37.30 -124.31,36.64 -124.13,37.20 -124.05,38.64 -124.13,40.12 -124.31,40.79 -124.49,40.24" fill="#9aa3ad"></polygon><line x1="-117.54" y1="54.90" x2="-125.76" y2="58.74" stroke="#c3cad0" stroke-width="2.6" stroke-linecap="round" vector-effect="non-scaling-stroke"></line><polygon points="-116.94,32.48 -126.69,35.19 -126.69,-17.88 -116.94,-16.50" fill="#2a3036" stroke="#0e1114" stroke-width="1" vector-effect="non-scaling-stroke" stroke-linejoin="round"></polygon><polygon points="-116.94,32.48 -126.69,35.19 -126.69,-17.88 -116.94,-16.50" fill="url(#r67sh)"></polygon><polygon points="-116.94,32.48 -126.69,35.19 -126.69,-17.88 -116.94,-16.50" fill="#000000" fill-opacity="0.09"></polygon><polygon points="-117.11,28.65 -123.95,30.32 -123.95,-13.78 -117.11,-13.02" fill="#1e2226" stroke="#4a545d" stroke-width="1" vector-effect="non-scaling-stroke" stroke-linejoin="round"></polygon><polygon points="-124.56,-2.77 -126.22,-2.81 -126.22,-12.63 -124.56,-12.47" fill="#0f1215"></polygon><polygon points="-125.52,26.53 -125.44,24.93 -125.24,24.24 -125.05,24.85 -124.97,26.41 -125.05,28.00 -125.24,28.70 -125.44,28.09" fill="#9aa3ad"></polygon><polygon points="-125.52,18.15 -125.44,16.56 -125.24,15.88 -125.05,16.51 -124.97,18.07 -125.05,19.66 -125.24,20.34 -125.44,19.72" fill="#9aa3ad"></polygon><line x1="-124.23" y1="29.01" x2="-124.23" y2="-12.43" stroke="#c3cad0" stroke-width="2.2" stroke-linecap="round" vector-effect="non-scaling-stroke"></line><polygon points="-116.94,-16.89 -126.69,-18.30 -126.69,-105.15 -116.94,-97.06" fill="#15171a" stroke="rgba(255,255,255,0.28)" stroke-width="1" vector-effect="non-scaling-stroke" stroke-linejoin="round"></polygon><polygon points="-116.94,-16.89 -126.69,-18.30 -126.69,-105.15 -116.94,-97.06" fill="url(#r67sh)"></polygon><polygon points="-116.94,-16.89 -126.69,-18.30 -126.69,-105.15 -116.94,-97.06" fill="#000000" fill-opacity="0.09"></polygon><polygon points="-116.82,-93.51 -126.69,-101.41 -126.69,-105.63 -116.82,-97.40" fill="#1f2328"></polygon><polygon points="-126.83,218.43 -138.38,238.31 -138.38,145.73 -126.83,133.57" fill="#15171a" stroke="rgba(255,255,255,0.28)" stroke-width="1" vector-effect="non-scaling-stroke" stroke-linejoin="round"></polygon><polygon points="-126.83,218.43 -138.38,238.31 -138.38,145.73 -126.83,133.57" fill="url(#r67sh)"></polygon><polygon points="-126.83,218.43 -138.38,238.31 -138.38,145.73 -126.83,133.57" fill="#000000" fill-opacity="0.09"></polygon><polygon points="-126.69,137.30 -138.38,149.97 -138.38,145.35 -126.69,133.07" fill="#1f2328"></polygon><polygon points="-126.83,133.15 -138.38,145.26 -138.38,-34.90 -126.83,-31.99" fill="#15171a" stroke="rgba(255,255,255,0.28)" stroke-width="1" vector-effect="non-scaling-stroke" stroke-linejoin="round"></polygon><polygon points="-126.83,133.15 -138.38,145.26 -138.38,-34.90 -126.83,-31.99" fill="url(#r67sh)"></polygon><polygon points="-126.83,133.15 -138.38,145.26 -138.38,-34.90 -126.83,-31.99" fill="#000000" fill-opacity="0.09"></polygon><polygon points="-126.69,-28.17 -138.38,-30.77 -138.38,-35.38 -126.69,-32.39" fill="#1f2328"></polygon><polygon points="-126.83,-35.23 -138.38,-38.44 -138.38,-114.85 -126.83,-105.27" fill="#15171a" stroke="rgba(255,255,255,0.28)" stroke-width="1" vector-effect="non-scaling-stroke" stroke-linejoin="round"></polygon><polygon points="-126.83,-35.23 -138.38,-38.44 -138.38,-114.85 -126.83,-105.27" fill="url(#r67sh)"></polygon><polygon points="-126.83,-35.23 -138.38,-38.44 -138.38,-114.85 -126.83,-105.27" fill="#000000" fill-opacity="0.09"></polygon><polygon points="-126.69,-101.41 -138.38,-110.77 -138.38,-115.38 -126.69,-105.63" fill="#1f2328"></polygon><polygon points="-230.77,238.46 -138.46,238.46 -138.46,-115.38 -230.77,-115.38" fill="#c6c7c2" stroke="rgba(0,0,0,0.15)" stroke-width="1" vector-effect="non-scaling-stroke" stroke-linejoin="round"></polygon><polygon points="-119.66,282.05 119.66,282.05 119.66,264.96 -119.66,264.96" fill="#3a3a3f"></polygon><polygon points="-120.00,267.24 -0.69,267.24 -0.69,136.21 -120.00,136.21" fill="#15171a" stroke="rgba(255,255,255,0.28)" stroke-width="1" vector-effect="non-scaling-stroke" stroke-linejoin="round"></polygon><polygon points="-120.00,267.24 -0.69,267.24 -0.69,136.21 -120.00,136.21" fill="url(#r67sh)"></polygon><polygon points="-120.70,142.25 0.00,142.25 0.00,136.22 -120.70,136.22" fill="#1f2328"></polygon><line x1="-60.35" y1="266.40" x2="-60.35" y2="137.08" stroke="rgba(255,255,255,0.28)" stroke-width="1" stroke-linecap="round" vector-effect="non-scaling-stroke"></line><polygon points="0.69,267.24 120.00,267.24 120.00,136.21 0.69,136.21" fill="#15171a" stroke="rgba(255,255,255,0.28)" stroke-width="1" vector-effect="non-scaling-stroke" stroke-linejoin="round"></polygon><polygon points="0.69,267.24 120.00,267.24 120.00,136.21 0.69,136.21" fill="url(#r67sh)"></polygon><polygon points="0.00,142.25 120.70,142.25 120.70,136.22 0.00,136.22" fill="#1f2328"></polygon><polygon points="0.00,226.17 120.70,226.17 120.70,221.00 0.00,221.00" fill="#1f2328"></polygon><polygon points="0.00,182.49 120.70,182.49 120.70,177.31 0.00,177.31" fill="#1f2328"></polygon><polygon points="-108.47,111.44 108.47,111.44 126.52,129.98 -126.52,129.98" fill="#f6f5f2" stroke="rgba(0,0,0,0.12)" stroke-width="1" vector-effect="non-scaling-stroke" stroke-linejoin="round"></polygon><polygon points="-126.52,136.92 126.52,136.92 126.52,129.98 -126.52,129.98" fill="#d0cfcd"></polygon><polygon points="161.76,78.43 176.47,78.43 174.63,91.91 163.60,91.91" fill="#8b6b4f" stroke="rgba(0,0,0,0.25)" stroke-width="1" vector-effect="non-scaling-stroke" stroke-linejoin="round"></polygon><polygon points="169.12,78.43 160.55,63.22 143.15,64.62 151.71,79.84" fill="#4f8a55" stroke="rgba(20,60,30,0.35)" stroke-width="1" vector-effect="non-scaling-stroke" stroke-linejoin="round"></polygon><polygon points="169.14,78.44 167.09,56.71 146.50,49.47 148.55,71.20" fill="#3f7347" stroke="rgba(20,60,30,0.35)" stroke-width="1" vector-effect="non-scaling-stroke" stroke-linejoin="round"></polygon><polygon points="169.16,78.45 177.06,55.00 159.08,38.01 151.18,61.46" fill="#62a066" stroke="rgba(20,60,30,0.35)" stroke-width="1" vector-effect="non-scaling-stroke" stroke-linejoin="round"></polygon><polygon points="169.12,78.43 184.88,61.30 175.93,39.81 160.16,56.94" fill="#2f5f3a" stroke="rgba(20,60,30,0.35)" stroke-width="1" vector-effect="non-scaling-stroke" stroke-linejoin="round"></polygon><polygon points="169.14,78.44 188.51,70.07 189.01,48.97 169.65,57.35" fill="#4f8a55" stroke="rgba(20,60,30,0.35)" stroke-width="1" vector-effect="non-scaling-stroke" stroke-linejoin="round"></polygon><polygon points="169.16,78.45 185.89,78.63 193.07,63.51 176.33,63.33" fill="#3f7347" stroke="rgba(20,60,30,0.35)" stroke-width="1" vector-effect="non-scaling-stroke" stroke-linejoin="round"></polygon><polygon points="169.12,78.43 170.96,62.53 157.30,54.20 155.45,70.10" fill="#62a066" stroke="rgba(20,60,30,0.35)" stroke-width="1" vector-effect="non-scaling-stroke" stroke-linejoin="round"></polygon><polygon points="169.14,78.44 181.90,70.03 179.61,54.93 166.85,63.33" fill="#2f5f3a" stroke="rgba(20,60,30,0.35)" stroke-width="1" vector-effect="non-scaling-stroke" stroke-linejoin="round"></polygon><polygon points="202.00,173.25 238.00,173.25 233.50,206.25 206.50,206.25" fill="#8b6b4f" stroke="rgba(0,0,0,0.25)" stroke-width="1" vector-effect="non-scaling-stroke" stroke-linejoin="round"></polygon><polygon points="220.00,173.25 199.03,136.01 156.43,139.45 177.40,176.69" fill="#4f8a55" stroke="rgba(20,60,30,0.35)" stroke-width="1" vector-effect="non-scaling-stroke" stroke-linejoin="round"></polygon><polygon points="220.03,173.27 215.02,120.07 164.61,102.34 169.62,155.54" fill="#3f7347" stroke="rgba(20,60,30,0.35)" stroke-width="1" vector-effect="non-scaling-stroke" stroke-linejoin="round"></polygon><polygon points="220.06,173.29 239.39,115.90 195.37,74.30 176.04,131.69" fill="#62a066" stroke="rgba(20,60,30,0.35)" stroke-width="1" vector-effect="non-scaling-stroke" stroke-linejoin="round"></polygon><polygon points="220.00,173.25 258.59,131.31 236.67,78.71 198.08,120.64" fill="#2f5f3a" stroke="rgba(20,60,30,0.35)" stroke-width="1" vector-effect="non-scaling-stroke" stroke-linejoin="round"></polygon><polygon points="220.03,173.27 267.44,152.77 268.68,101.14 221.27,121.63" fill="#4f8a55" stroke="rgba(20,60,30,0.35)" stroke-width="1" vector-effect="non-scaling-stroke" stroke-linejoin="round"></polygon><polygon points="220.06,173.29 261.02,173.74 278.58,136.72 237.62,136.28" fill="#3f7347" stroke="rgba(20,60,30,0.35)" stroke-width="1" vector-effect="non-scaling-stroke" stroke-linejoin="round"></polygon><polygon points="220.00,173.25 224.52,134.33 191.07,113.93 186.55,152.85" fill="#62a066" stroke="rgba(20,60,30,0.35)" stroke-width="1" vector-effect="non-scaling-stroke" stroke-linejoin="round"></polygon><polygon points="220.03,173.27 251.26,152.69 245.66,115.71 214.42,136.29" fill="#2f5f3a" stroke="rgba(20,60,30,0.35)" stroke-width="1" vector-effect="non-scaling-stroke" stroke-linejoin="round"></polygon><line x1="-101.75" y1="294.46" x2="-99.58" y2="177.10" stroke="#2b2f33" stroke-width="2.4" stroke-linecap="round" vector-effect="non-scaling-stroke"></line><line x1="-64.81" y1="294.46" x2="-67.38" y2="177.10" stroke="#2b2f33" stroke-width="2.4" stroke-linecap="round" vector-effect="non-scaling-stroke"></line><line x1="-105.65" y1="305.75" x2="-102.90" y2="182.99" stroke="#2b2f33" stroke-width="2.4" stroke-linecap="round" vector-effect="non-scaling-stroke"></line><line x1="-67.30" y1="305.75" x2="-69.62" y2="182.99" stroke="#2b2f33" stroke-width="2.4" stroke-linecap="round" vector-effect="non-scaling-stroke"></line><polygon points="-64.85,252.73 -67.36,254.74 -73.42,256.37 -81.85,257.29 -90.91,257.29 -98.72,256.37 -103.69,254.74 -104.85,252.73 -102.06,250.75 -95.95,249.19 -87.74,248.33 -79.00,248.33 -71.36,249.19 -66.31,250.75" fill="none" stroke="#2b2f33" stroke-width="1" vector-effect="non-scaling-stroke" stroke-linejoin="round"></polygon><polygon points="-53.94,180.00 -57.68,182.16 -67.01,183.92 -80.10,184.92 -94.23,184.92 -106.39,183.92 -114.05,182.16 -115.76,180.00 -111.38,177.89 -101.95,176.24 -89.35,175.34 -75.95,175.34 -64.21,176.24 -56.33,177.89" fill="#c2a37c" stroke="rgba(60,40,20,0.35)" stroke-width="1" vector-effect="non-scaling-stroke" stroke-linejoin="round"></polygon><polygon points="-115.05,182.84 -59.08,182.84 -60.95,143.66 -113.18,143.66" fill="#b48f64" stroke="rgba(60,40,20,0.35)" stroke-width="1" vector-effect="non-scaling-stroke" stroke-linejoin="round"></polygon><line x1="-18.47" y1="294.46" x2="-16.10" y2="177.10" stroke="#2b2f33" stroke-width="2.4" stroke-linecap="round" vector-effect="non-scaling-stroke"></line><line x1="18.47" y1="294.46" x2="16.10" y2="177.10" stroke="#2b2f33" stroke-width="2.4" stroke-linecap="round" vector-effect="non-scaling-stroke"></line><line x1="-19.18" y1="305.75" x2="-16.64" y2="182.99" stroke="#2b2f33" stroke-width="2.4" stroke-linecap="round" vector-effect="non-scaling-stroke"></line><line x1="19.18" y1="305.75" x2="16.64" y2="182.99" stroke="#2b2f33" stroke-width="2.4" stroke-linecap="round" vector-effect="non-scaling-stroke"></line><polygon points="20.00,252.73 18.16,254.74 12.65,256.37 4.53,257.29 -4.53,257.29 -12.65,256.37 -18.16,254.74 -20.00,252.73 -17.88,250.75 -12.30,249.19 -4.37,248.33 4.37,248.33 12.30,249.19 17.88,250.75" fill="none" stroke="#2b2f33" stroke-width="1" vector-effect="non-scaling-stroke" stroke-linejoin="round"></polygon><polygon points="30.91,180.00 28.18,182.16 19.69,183.92 7.07,184.92 -7.07,184.92 -19.69,183.92 -28.18,182.16 -30.91,180.00 -27.52,177.89 -18.87,176.24 -6.70,175.34 6.70,175.34 18.87,176.24 27.52,177.89" fill="#c2a37c" stroke="rgba(60,40,20,0.35)" stroke-width="1" vector-effect="non-scaling-stroke" stroke-linejoin="round"></polygon><polygon points="-27.99,182.84 27.99,182.84 26.12,143.66 -26.12,143.66" fill="#b48f64" stroke="rgba(60,40,20,0.35)" stroke-width="1" vector-effect="non-scaling-stroke" stroke-linejoin="round"></polygon><line x1="64.81" y1="294.46" x2="67.38" y2="177.10" stroke="#2b2f33" stroke-width="2.4" stroke-linecap="round" vector-effect="non-scaling-stroke"></line><line x1="101.75" y1="294.46" x2="99.58" y2="177.10" stroke="#2b2f33" stroke-width="2.4" stroke-linecap="round" vector-effect="non-scaling-stroke"></line><line x1="67.30" y1="305.75" x2="69.62" y2="182.99" stroke="#2b2f33" stroke-width="2.4" stroke-linecap="round" vector-effect="non-scaling-stroke"></line><line x1="105.65" y1="305.75" x2="102.90" y2="182.99" stroke="#2b2f33" stroke-width="2.4" stroke-linecap="round" vector-effect="non-scaling-stroke"></line><polygon points="104.85,252.73 103.69,254.74 98.72,256.37 90.91,257.29 81.85,257.29 73.42,256.37 67.36,254.74 64.85,252.73 66.31,250.75 71.36,249.19 79.00,248.33 87.74,248.33 95.95,249.19 102.06,250.75" fill="none" stroke="#2b2f33" stroke-width="1" vector-effect="non-scaling-stroke" stroke-linejoin="round"></polygon><polygon points="115.76,180.00 114.05,182.16 106.39,183.92 94.23,184.92 80.10,184.92 67.01,183.92 57.68,182.16 53.94,180.00 56.33,177.89 64.21,176.24 75.95,175.34 89.35,175.34 101.95,176.24 111.38,177.89" fill="#c2a37c" stroke="rgba(60,40,20,0.35)" stroke-width="1" vector-effect="non-scaling-stroke" stroke-linejoin="round"></polygon><polygon points="59.08,182.84 115.05,182.84 113.18,143.66 60.95,143.66" fill="#b48f64" stroke="rgba(60,40,20,0.35)" stroke-width="1" vector-effect="non-scaling-stroke" stroke-linejoin="round"></polygon><line x1="-74.67" y1="-120.00" x2="-74.67" y2="-62.40" stroke="#2b2f33" stroke-width="1.4" stroke-linecap="round" vector-effect="non-scaling-stroke"></line><polygon points="-81.87,-62.40 -67.47,-62.40 -67.47,-4.80 -81.87,-4.80" fill="#17191c" stroke="#000000" stroke-width="1" vector-effect="non-scaling-stroke" stroke-linejoin="round"></polygon><polygon points="-81.87,-9.60 -67.47,-9.60 -67.47,-4.80 -81.87,-4.80" fill="#d6a84f"></polygon><polygon points="-78.99,-4.80 -70.35,-4.80 -70.35,-3.52 -78.99,-3.52" fill="#fff2c4"></polygon><polygon points="-26.67,0.00 -29.56,-3.28 -37.90,-6.17 -50.67,-8.31 -66.33,-9.45 -83.00,-9.45 -98.67,-8.31 -111.44,-6.17 -119.77,-3.28 -122.67,0.00 -119.77,3.28 -111.44,6.17 -98.67,8.31 -83.00,9.45 -66.33,9.45 -50.67,8.31 -37.90,6.17 -29.56,3.28" fill="url(#r67lg)"></polygon><line x1="0.00" y1="-120.00" x2="0.00" y2="-62.40" stroke="#2b2f33" stroke-width="1.4" stroke-linecap="round" vector-effect="non-scaling-stroke"></line><polygon points="-7.20,-62.40 7.20,-62.40 7.20,-4.80 -7.20,-4.80" fill="#17191c" stroke="#000000" stroke-width="1" vector-effect="non-scaling-stroke" stroke-linejoin="round"></polygon><polygon points="-7.20,-9.60 7.20,-9.60 7.20,-4.80 -7.20,-4.80" fill="#d6a84f"></polygon><polygon points="-4.32,-4.80 4.32,-4.80 4.32,-3.52 -4.32,-3.52" fill="#fff2c4"></polygon><polygon points="48.00,0.00 45.11,-3.28 36.77,-6.17 24.00,-8.31 8.34,-9.45 -8.34,-9.45 -24.00,-8.31 -36.77,-6.17 -45.11,-3.28 -48.00,0.00 -45.11,3.28 -36.77,6.17 -24.00,8.31 -8.34,9.45 8.34,9.45 24.00,8.31 36.77,6.17 45.11,3.28" fill="url(#r67lg)"></polygon><line x1="74.67" y1="-120.00" x2="74.67" y2="-62.40" stroke="#2b2f33" stroke-width="1.4" stroke-linecap="round" vector-effect="non-scaling-stroke"></line><polygon points="67.47,-62.40 81.87,-62.40 81.87,-4.80 67.47,-4.80" fill="#17191c" stroke="#000000" stroke-width="1" vector-effect="non-scaling-stroke" stroke-linejoin="round"></polygon><polygon points="67.47,-9.60 81.87,-9.60 81.87,-4.80 67.47,-4.80" fill="#d6a84f"></polygon><polygon points="70.35,-4.80 78.99,-4.80 78.99,-3.52 70.35,-3.52" fill="#fff2c4"></polygon><polygon points="122.67,0.00 119.77,-3.28 111.44,-6.17 98.67,-8.31 83.00,-9.45 66.33,-9.45 50.67,-8.31 37.90,-6.17 29.56,-3.28 26.67,0.00 29.56,3.28 37.90,6.17 50.67,8.31 66.33,9.45 83.00,9.45 98.67,8.31 111.44,6.17 119.77,3.28" fill="url(#r67lg)"></polygon></svg>