<?xml version="1.0" encoding="UTF-8"?>
<svg viewBox="-246.9 -142.4 454.7 535.1" preserveAspectRatio="xMidYMid meet" xmlns="http://www.w3.org/2000/svg"><defs><linearGradient id="r10sh" x1="0" y1="0" x2="0" y2="1"><stop offset="0" stop-color="#ffffff" stop-opacity="0.16"></stop><stop offset="0.55" stop-color="#ffffff" stop-opacity="0"></stop><stop offset="1" stop-color="#000000" stop-opacity="0.10"></stop></linearGradient><linearGradient id="r10gl" x1="0" y1="0" x2="0" y2="1"><stop offset="0" stop-color="#fff1cf" stop-opacity="0.95"></stop><stop offset="0.5" stop-color="#fff1cf" stop-opacity="0.45"></stop><stop offset="1" stop-color="#fff1cf" stop-opacity="0"></stop></linearGradient></defs><polygon points="-164.61,226.34 521.26,226.34 521.26,-102.88 -164.61,-102.88" fill="#efe8de"></polygon><polygon points="-164.61,226.34 -286.40,393.79 -286.40,-179.00 -164.61,-102.88" fill="#e2d8ca"></polygon><polygon points="-164.61,226.34 521.26,226.34 906.92,393.79 -286.40,393.79" fill="#ccb08d"></polygon><line x1="-164.61" y1="226.34" x2="-286.40" y2="393.79" stroke="rgba(90,60,30,0.10)" stroke-width="1" stroke-linecap="round" vector-effect="non-scaling-stroke"></line><line x1="-134.43" y1="226.34" x2="-233.89" y2="393.79" stroke="rgba(90,60,30,0.10)" stroke-width="1" stroke-linecap="round" vector-effect="non-scaling-stroke"></line><line x1="-104.25" y1="226.34" x2="-181.38" y2="393.79" stroke="rgba(90,60,30,0.10)" stroke-width="1" stroke-linecap="round" vector-effect="non-scaling-stroke"></line><line x1="-74.07" y1="226.34" x2="-128.88" y2="393.79" stroke="rgba(90,60,30,0.10)" stroke-width="1" stroke-linecap="round" vector-effect="non-scaling-stroke"></line><line x1="-43.90" y1="226.34" x2="-76.37" y2="393.79" stroke="rgba(90,60,30,0.10)" stroke-width="1" stroke-linecap="round" vector-effect="non-scaling-stroke"></line><line x1="-13.72" y1="226.34" x2="-23.87" y2="393.79" stroke="rgba(90,60,30,0.10)" stroke-width="1" stroke-linecap="round" vector-effect="non-scaling-stroke"></line><line x1="16.46" y1="226.34" x2="28.64" y2="393.79" stroke="rgba(90,60,30,0.10)" stroke-width="1" stroke-linecap="round" vector-effect="non-scaling-stroke"></line><line x1="46.64" y1="226.34" x2="81.15" y2="393.79" stroke="rgba(90,60,30,0.10)" stroke-width="1" stroke-linecap="round" vector-effect="non-scaling-stroke"></line><line x1="76.82" y1="226.34" x2="133.65" y2="393.79" stroke="rgba(90,60,30,0.10)" stroke-width="1" stroke-linecap="round" vector-effect="non-scaling-stroke"></line><line x1="107.00" y1="226.34" x2="186.16" y2="393.79" stroke="rgba(90,60,30,0.10)" stroke-width="1" stroke-linecap="round" vector-effect="non-scaling-stroke"></line><line x1="137.17" y1="226.34" x2="238.66" y2="393.79" stroke="rgba(90,60,30,0.10)" stroke-width="1" stroke-linecap="round" vector-effect="non-scaling-stroke"></line><line x1="167.35" y1="226.34" x2="291.17" y2="393.79" stroke="rgba(90,60,30,0.10)" stroke-width="1" stroke-linecap="round" vector-effect="non-scaling-stroke"></line><line x1="197.53" y1="226.34" x2="343.68" y2="393.79" stroke="rgba(90,60,30,0.10)" stroke-width="1" stroke-linecap="round" vector-effect="non-scaling-stroke"></line><line x1="227.71" y1="226.34" x2="396.18" y2="393.79" stroke="rgba(90,60,30,0.10)" stroke-width="1" stroke-linecap="round" vector-effect="non-scaling-stroke"></line><line x1="257.89" y1="226.34" x2="448.69" y2="393.79" stroke="rgba(90,60,30,0.10)" stroke-width="1" stroke-linecap="round" vector-effect="non-scaling-stroke"></line><line x1="288.07" y1="226.34" x2="501.19" y2="393.79" stroke="rgba(90,60,30,0.10)" stroke-width="1" stroke-linecap="round" vector-effect="non-scaling-stroke"></line><line x1="318.24" y1="226.34" x2="553.70" y2="393.79" stroke="rgba(90,60,30,0.10)" stroke-width="1" stroke-linecap="round" vector-effect="non-scaling-stroke"></line><line x1="348.42" y1="226.34" x2="606.21" y2="393.79" stroke="rgba(90,60,30,0.10)" stroke-width="1" stroke-linecap="round" vector-effect="non-scaling-stroke"></line><line x1="378.60" y1="226.34" x2="658.71" y2="393.79" stroke="rgba(90,60,30,0.10)" stroke-width="1" stroke-linecap="round" vector-effect="non-scaling-stroke"></line><line x1="408.78" y1="226.34" x2="711.22" y2="393.79" stroke="rgba(90,60,30,0.10)" stroke-width="1" stroke-linecap="round" vector-effect="non-scaling-stroke"></line><line x1="438.96" y1="226.34" x2="763.72" y2="393.79" stroke="rgba(90,60,30,0.10)" stroke-width="1" stroke-linecap="round" vector-effect="non-scaling-stroke"></line><line x1="469.14" y1="226.34" x2="816.23" y2="393.79" stroke="rgba(90,60,30,0.10)" stroke-width="1" stroke-linecap="round" vector-effect="non-scaling-stroke"></line><line x1="499.31" y1="226.34" x2="868.74" y2="393.79" stroke="rgba(90,60,30,0.10)" stroke-width="1" stroke-linecap="round" vector-effect="non-scaling-stroke"></line><polygon points="-164.65,102.91 164.65,102.91 164.65,27.44 -164.65,27.44" fill="#f8f6f2" stroke="rgba(0,0,0,0.05)" stroke-width="1" vector-effect="non-scaling-stroke" stroke-linejoin="round"></polygon><line x1="-144.09" y1="102.92" x2="-144.09" y2="27.45" stroke="rgba(0,0,0,0.06)" stroke-width="1" stroke-linecap="round" vector-effect="non-scaling-stroke"></line><line x1="-123.51" y1="102.92" x2="-123.51" y2="27.45" stroke="rgba(0,0,0,0.06)" stroke-width="1" stroke-linecap="round" vector-effect="non-scaling-stroke"></line><line x1="-102.92" y1="102.92" x2="-102.92" y2="27.45" stroke="rgba(0,0,0,0.06)" stroke-width="1" stroke-linecap="round" vector-effect="non-scaling-stroke"></line><line x1="-82.34" y1="102.92" x2="-82.34" y2="27.45" stroke="rgba(0,0,0,0.06)" stroke-width="1" stroke-linecap="round" vector-effect="non-scaling-stroke"></line><line x1="-61.75" y1="102.92" x2="-61.75" y2="27.45" stroke="rgba(0,0,0,0.06)" stroke-width="1" stroke-linecap="round" vector-effect="non-scaling-stroke"></line><line x1="-41.17" y1="102.92" x2="-41.17" y2="27.45" stroke="rgba(0,0,0,0.06)" stroke-width="1" stroke-linecap="round" vector-effect="non-scaling-stroke"></line><line x1="-20.58" y1="102.92" x2="-20.58" y2="27.45" stroke="rgba(0,0,0,0.06)" stroke-width="1" stroke-linecap="round" vector-effect="non-scaling-stroke"></line><line x1="0.00" y1="102.92" x2="0.00" y2="27.45" stroke="rgba(0,0,0,0.06)" stroke-width="1" stroke-linecap="round" vector-effect="non-scaling-stroke"></line><line x1="20.58" y1="102.92" x2="20.58" y2="27.45" stroke="rgba(0,0,0,0.06)" stroke-width="1" stroke-linecap="round" vector-effect="non-scaling-stroke"></line><line x1="41.17" y1="102.92" x2="41.17" y2="27.45" stroke="rgba(0,0,0,0.06)" stroke-width="1" stroke-linecap="round" vector-effect="non-scaling-stroke"></line><line x1="61.75" y1="102.92" x2="61.75" y2="27.45" stroke="rgba(0,0,0,0.06)" stroke-width="1" stroke-linecap="round" vector-effect="non-scaling-stroke"></line><line x1="82.34" y1="102.92" x2="82.34" y2="27.45" stroke="rgba(0,0,0,0.06)" stroke-width="1" stroke-linecap="round" vector-effect="non-scaling-stroke"></line><line x1="102.92" y1="102.92" x2="102.92" y2="27.45" stroke="rgba(0,0,0,0.06)" stroke-width="1" stroke-linecap="round" vector-effect="non-scaling-stroke"></line><line x1="123.51" y1="102.92" x2="123.51" y2="27.45" stroke="rgba(0,0,0,0.06)" stroke-width="1" stroke-linecap="round" vector-effect="non-scaling-stroke"></line><line x1="144.09" y1="102.92" x2="144.09" y2="27.45" stroke="rgba(0,0,0,0.06)" stroke-width="1" stroke-linecap="round" vector-effect="non-scaling-stroke"></line><line x1="-164.68" y1="87.83" x2="164.68" y2="87.83" stroke="rgba(0,0,0,0.06)" stroke-width="1" stroke-linecap="round" vector-effect="non-scaling-stroke"></line><line x1="-164.68" y1="72.73" x2="164.68" y2="72.73" stroke="rgba(0,0,0,0.06)" stroke-width="1" stroke-linecap="round" vector-effect="non-scaling-stroke"></line><line x1="-164.68" y1="57.64" x2="164.68" y2="57.64" stroke="rgba(0,0,0,0.06)" stroke-width="1" stroke-linecap="round" vector-effect="non-scaling-stroke"></line><line x1="-164.68" y1="42.54" x2="164.68" y2="42.54" stroke="rgba(0,0,0,0.06)" stroke-width="1" stroke-linecap="round" vector-effect="non-scaling-stroke"></line><polygon points="-164.33,102.88 -218.21,136.61 -218.21,36.43 -164.33,27.43" fill="#f1eee8"></polygon><polygon points="-164.71,74.12 164.71,74.12 164.71,27.45 -164.71,27.45" fill="url(#r10gl)"></polygon><line x1="-171.94" y1="29.64" x2="171.94" y2="29.64" stroke="#fffbe3" stroke-width="3" stroke-linecap="round" vector-effect="non-scaling-stroke"></line><polygon points="-172.26,77.81 -208.28,94.08 -208.28,34.84 -172.26,28.82" fill="url(#r10gl)"></polygon><line x1="-124.01" y1="29.70" x2="-149.70" y2="35.86" stroke="#fffbe3" stroke-width="3" stroke-linecap="round" vector-effect="non-scaling-stroke"></line><polygon points="-178.31,245.02 178.31,245.02 183.77,252.53 -183.77,252.53" fill="url(#r10gl)"></polygon><polygon points="-95.67,246.49 -116.58,300.36 -80.15,300.36 -65.77,246.49" fill="url(#r10gl)"></polygon><polygon points="-164.70,46.66 164.70,46.66 164.70,27.45 -164.70,27.45" fill="rgba(0,0,0,0.07)"></polygon><polygon points="-172.33,28.82 -87.03,28.82 -87.03,-74.93 -172.33,-74.93" fill="#15171a" stroke="rgba(255,255,255,0.28)" stroke-width="1" vector-effect="non-scaling-stroke" stroke-linejoin="round"></polygon><polygon points="-172.33,28.82 -87.03,28.82 -87.03,-74.93 -172.33,-74.93" fill="url(#r10sh)"></polygon><line x1="-129.69" y1="28.10" x2="-129.69" y2="-74.21" stroke="rgba(255,255,255,0.28)" stroke-width="1" stroke-linecap="round" vector-effect="non-scaling-stroke"></line><polygon points="-85.88,28.82 -0.58,28.82 -0.58,-74.93 -85.88,-74.93" fill="#15171a" stroke="rgba(255,255,255,0.28)" stroke-width="1" vector-effect="non-scaling-stroke" stroke-linejoin="round"></polygon><polygon points="-85.88,28.82 -0.58,28.82 -0.58,-74.93 -85.88,-74.93" fill="url(#r10sh)"></polygon><polygon points="0.58,28.82 85.88,28.82 85.88,-74.93 0.58,-74.93" fill="#15171a" stroke="rgba(255,255,255,0.28)" stroke-width="1" vector-effect="non-scaling-stroke" stroke-linejoin="round"></polygon><polygon points="0.58,28.82 85.88,28.82 85.88,-74.93 0.58,-74.93" fill="url(#r10sh)"></polygon><polygon points="87.03,28.82 172.33,28.82 172.33,-74.93 87.03,-74.93" fill="#15171a" stroke="rgba(255,255,255,0.28)" stroke-width="1" vector-effect="non-scaling-stroke" stroke-linejoin="round"></polygon><polygon points="87.03,28.82 172.33,28.82 172.33,-74.93 87.03,-74.93" fill="url(#r10sh)"></polygon><line x1="129.69" y1="28.10" x2="129.69" y2="-74.21" stroke="rgba(255,255,255,0.28)" stroke-width="1" stroke-linecap="round" vector-effect="non-scaling-stroke"></line><polygon points="-122.55,28.84 -133.98,31.53 -133.98,-81.97 -122.55,-74.97" fill="#15171a" stroke="rgba(255,255,255,0.28)" stroke-width="1" vector-effect="non-scaling-stroke" stroke-linejoin="round"></polygon><polygon points="-122.55,28.84 -133.98,31.53 -133.98,-81.97 -122.55,-74.97" fill="url(#r10sh)"></polygon><polygon points="-122.55,28.84 -133.98,31.53 -133.98,-81.97 -122.55,-74.97" fill="#000000" fill-opacity="0.09"></polygon><line x1="-127.94" y1="29.37" x2="-127.94" y2="-77.56" stroke="rgba(255,255,255,0.28)" stroke-width="1" stroke-linecap="round" vector-effect="non-scaling-stroke"></line><polygon points="-134.15,31.57 -147.98,34.82 -147.98,-90.53 -134.15,-82.07" fill="#15171a" stroke="rgba(255,255,255,0.28)" stroke-width="1" vector-effect="non-scaling-stroke" stroke-linejoin="round"></polygon><polygon points="-134.15,31.57 -147.98,34.82 -147.98,-90.53 -134.15,-82.07" fill="url(#r10sh)"></polygon><polygon points="-134.15,31.57 -147.98,34.82 -147.98,-90.53 -134.15,-82.07" fill="#000000" fill-opacity="0.09"></polygon><line x1="-140.65" y1="32.28" x2="-140.65" y2="-85.26" stroke="rgba(255,255,255,0.28)" stroke-width="1" stroke-linecap="round" vector-effect="non-scaling-stroke"></line><polygon points="-209.06,34.84 -148.08,34.84 -148.08,-90.59 -209.06,-90.59" fill="#c6c7c2" stroke="rgba(0,0,0,0.15)" stroke-width="1" vector-effect="non-scaling-stroke" stroke-linejoin="round"></polygon><polygon points="-178.04,244.81 178.04,244.81 178.04,229.97 -178.04,229.97" fill="#3a3a3f"></polygon><polygon points="-178.77,231.69 -90.28,231.69 -90.28,118.09 -178.77,118.09" fill="#15171a" stroke="rgba(255,255,255,0.28)" stroke-width="1" vector-effect="non-scaling-stroke" stroke-linejoin="round"></polygon><polygon points="-178.77,231.69 -90.28,231.69 -90.28,118.09 -178.77,118.09" fill="url(#r10sh)"></polygon><polygon points="-179.39,123.33 -89.69,123.33 -89.69,118.10 -179.39,118.10" fill="#1f2328"></polygon><line x1="-134.54" y1="230.96" x2="-134.54" y2="118.84" stroke="rgba(255,255,255,0.28)" stroke-width="1" stroke-linecap="round" vector-effect="non-scaling-stroke"></line><polygon points="-89.09,231.69 -0.60,231.69 -0.60,118.09 -89.09,118.09" fill="#15171a" stroke="rgba(255,255,255,0.28)" stroke-width="1" vector-effect="non-scaling-stroke" stroke-linejoin="round"></polygon><polygon points="-89.09,231.69 -0.60,231.69 -0.60,118.09 -89.09,118.09" fill="url(#r10sh)"></polygon><polygon points="-89.69,123.33 0.00,123.33 0.00,118.10 -89.69,118.10" fill="#1f2328"></polygon><polygon points="-89.69,196.08 0.00,196.08 0.00,191.59 -89.69,191.59" fill="#1f2328"></polygon><polygon points="-89.69,158.21 0.00,158.21 0.00,153.72 -89.69,153.72" fill="#1f2328"></polygon><polygon points="0.60,231.69 89.09,231.69 89.09,118.09 0.60,118.09" fill="#15171a" stroke="rgba(255,255,255,0.28)" stroke-width="1" vector-effect="non-scaling-stroke" stroke-linejoin="round"></polygon><polygon points="0.60,231.69 89.09,231.69 89.09,118.09 0.60,118.09" fill="url(#r10sh)"></polygon><polygon points="0.00,123.33 89.69,123.33 89.69,118.10 0.00,118.10" fill="#1f2328"></polygon><line x1="44.85" y1="230.96" x2="44.85" y2="118.84" stroke="rgba(255,255,255,0.28)" stroke-width="1" stroke-linecap="round" vector-effect="non-scaling-stroke"></line><polygon points="90.28,231.69 178.77,231.69 178.77,118.09 90.28,118.09" fill="#15171a" stroke="rgba(255,255,255,0.28)" stroke-width="1" vector-effect="non-scaling-stroke" stroke-linejoin="round"></polygon><polygon points="90.28,231.69 178.77,231.69 178.77,118.09 90.28,118.09" fill="url(#r10sh)"></polygon><polygon points="89.69,123.33 179.39,123.33 179.39,118.10 89.69,118.10" fill="#1f2328"></polygon><polygon points="89.69,196.08 179.39,196.08 179.39,191.59 89.69,191.59" fill="#1f2328"></polygon><polygon points="89.69,158.21 179.39,158.21 179.39,153.72 89.69,153.72" fill="#1f2328"></polygon><polygon points="-164.61,102.88 164.61,102.88 179.91,112.44 -179.91,112.44" fill="#f6f5f2" stroke="rgba(0,0,0,0.12)" stroke-width="1" vector-effect="non-scaling-stroke" stroke-linejoin="round"></polygon><polygon points="-179.91,118.44 179.91,118.44 179.91,112.44 -179.91,112.44" fill="#d0cfcd"></polygon><polygon points="-161.11,104.03 -88.89,104.03 -94.26,110.31 -170.84,110.31" fill="#c9ced4" stroke="#9aa3ad" stroke-width="1" vector-effect="non-scaling-stroke" stroke-linejoin="round"></polygon><polygon points="-157.60,104.39 -93.44,104.39 -98.24,109.75 -165.69,109.75" fill="#aab2ba"></polygon><line x1="-124.31" y1="103.59" x2="-124.31" y2="70.44" stroke="#8a939c" stroke-width="2.6" stroke-linecap="round" vector-effect="non-scaling-stroke"></line><line x1="-124.31" y1="70.44" x2="-126.40" y2="74.44" stroke="#8a939c" stroke-width="2.6" stroke-linecap="round" vector-effect="non-scaling-stroke"></line><polygon points="5.55,103.88 77.67,103.88 82.72,110.64 5.91,110.64" fill="#18181b" stroke="#3f3f46" stroke-width="1" vector-effect="non-scaling-stroke" stroke-linejoin="round"></polygon><polygon points="33.80,105.35 32.97,105.80 30.32,106.17 26.39,106.37 21.96,106.37 17.93,106.17 15.13,105.80 14.08,105.35 15.00,104.90 17.66,104.55 21.54,104.35 25.89,104.35 29.86,104.55 32.69,104.90" fill="none" stroke="#52525b" stroke-width="1" vector-effect="non-scaling-stroke" stroke-linejoin="round"></polygon><polygon points="70.42,105.35 69.74,105.80 67.23,106.17 63.37,106.37 58.94,106.37 54.84,106.17 51.90,105.80 50.70,105.35 51.46,104.90 54.00,104.55 57.81,104.35 62.16,104.35 66.20,104.55 69.15,104.90" fill="none" stroke="#52525b" stroke-width="1" vector-effect="non-scaling-stroke" stroke-linejoin="round"></polygon><polygon points="34.88,108.72 34.03,109.20 31.30,109.59 27.24,109.81 22.67,109.81 18.51,109.59 15.61,109.20 14.53,108.72 15.47,108.24 18.22,107.86 22.22,107.65 26.71,107.65 30.81,107.86 33.73,108.24" fill="none" stroke="#52525b" stroke-width="1" vector-effect="non-scaling-stroke" stroke-linejoin="round"></polygon><polygon points="72.67,108.72 71.98,109.20 69.40,109.59 65.41,109.81 60.84,109.81 56.61,109.59 53.57,109.20 52.33,108.72 53.10,108.24 55.71,107.86 59.64,107.65 64.13,107.65 68.30,107.86 71.35,108.24" fill="none" stroke="#52525b" stroke-width="1" vector-effect="non-scaling-stroke" stroke-linejoin="round"></polygon><polygon points="2.89,41.97 83.94,41.97 83.94,28.94 2.89,28.94" fill="#c3c9cf" stroke="#8f979f" stroke-width="1" vector-effect="non-scaling-stroke" stroke-linejoin="round"></polygon><polygon points="-97.16,246.64 -118.40,300.55 -118.40,282.33 -97.16,231.69" fill="#3a3a3f"></polygon><polygon points="-89.74,231.83 -98.46,254.35 -98.46,129.64 -89.74,118.16" fill="#15171a" stroke="rgba(255,255,255,0.28)" stroke-width="1" vector-effect="non-scaling-stroke" stroke-linejoin="round"></polygon><polygon points="-89.74,231.83 -98.46,254.35 -98.46,129.64 -89.74,118.16" fill="url(#r10sh)"></polygon><polygon points="-89.74,231.83 -98.46,254.35 -98.46,129.64 -89.74,118.16" fill="#000000" fill-opacity="0.09"></polygon><polygon points="-89.61,123.32 -98.44,135.47 -98.44,129.72 -89.61,118.09" fill="#1f2328"></polygon><line x1="-93.82" y1="241.78" x2="-93.82" y2="124.41" stroke="rgba(255,255,255,0.28)" stroke-width="1" stroke-linecap="round" vector-effect="non-scaling-stroke"></line><polygon points="-98.59,254.68 -109.21,282.13 -109.21,143.79 -98.59,129.81" fill="#15171a" stroke="rgba(255,255,255,0.28)" stroke-width="1" vector-effect="non-scaling-stroke" stroke-linejoin="round"></polygon><polygon points="-98.59,254.68 -109.21,282.13 -109.21,143.79 -98.59,129.81" fill="url(#r10sh)"></polygon><polygon points="-98.59,254.68 -109.21,282.13 -109.21,143.79 -98.59,129.81" fill="#000000" fill-opacity="0.09"></polygon><polygon points="-98.44,135.47 -109.20,150.27 -109.20,143.90 -98.44,129.72" fill="#1f2328"></polygon><polygon points="-98.44,215.38 -109.20,238.92 -109.20,233.45 -98.44,210.45" fill="#1f2328"></polygon><polygon points="-98.44,173.78 -109.20,192.77 -109.20,187.31 -98.44,168.86" fill="#1f2328"></polygon><polygon points="-218.58,282.33 -109.29,282.33 -109.29,143.90 -218.58,143.90" fill="#c6c7c2" stroke="rgba(0,0,0,0.15)" stroke-width="1" vector-effect="non-scaling-stroke" stroke-linejoin="round"></polygon><polygon points="-179.37,112.11 -218.98,136.86 -105.84,136.86 -86.70,112.11" fill="#f6f5f2" stroke="rgba(0,0,0,0.12)" stroke-width="1" vector-effect="non-scaling-stroke" stroke-linejoin="round"></polygon><polygon points="-86.70,118.09 -105.84,144.16 -105.84,136.86 -86.70,112.11" fill="#d0cfcd"></polygon><polygon points="-218.98,144.16 -105.84,144.16 -105.84,136.86 -218.98,136.86" fill="#b8b7b5"></polygon><polygon points="-144.63,340.91 144.63,340.91 144.63,320.25 -144.63,320.25" fill="#3a3a3f"></polygon><polygon points="-145.30,323.59 -0.84,323.59 -0.84,164.93 -145.30,164.93" fill="#15171a" stroke="rgba(255,255,255,0.28)" stroke-width="1" vector-effect="non-scaling-stroke" stroke-linejoin="round"></polygon><polygon points="-145.30,323.59 -0.84,323.59 -0.84,164.93 -145.30,164.93" fill="url(#r10sh)"></polygon><polygon points="-146.15,172.25 0.00,172.25 0.00,164.94 -146.15,164.94" fill="#1f2328"></polygon><line x1="-73.08" y1="322.58" x2="-73.08" y2="165.99" stroke="rgba(255,255,255,0.28)" stroke-width="1" stroke-linecap="round" vector-effect="non-scaling-stroke"></line><polygon points="0.84,323.59 145.30,323.59 145.30,164.93 0.84,164.93" fill="#15171a" stroke="rgba(255,255,255,0.28)" stroke-width="1" vector-effect="non-scaling-stroke" stroke-linejoin="round"></polygon><polygon points="0.84,323.59 145.30,323.59 145.30,164.93 0.84,164.93" fill="url(#r10sh)"></polygon><polygon points="0.00,172.25 146.15,172.25 146.15,164.94 0.00,164.94" fill="#1f2328"></polygon><polygon points="0.00,273.86 146.15,273.86 146.15,267.60 0.00,267.60" fill="#1f2328"></polygon><polygon points="0.00,220.97 146.15,220.97 146.15,214.71 0.00,214.71" fill="#1f2328"></polygon><polygon points="-127.62,131.12 127.62,131.12 153.36,157.56 -153.36,157.56" fill="#f6f5f2" stroke="rgba(0,0,0,0.12)" stroke-width="1" vector-effect="non-scaling-stroke" stroke-linejoin="round"></polygon><polygon points="-153.36,165.97 153.36,165.97 153.36,157.56 -153.36,157.56" fill="#d0cfcd"></polygon></svg>